<svg id="clock-time" xmlns="http://www.w3.org/2000/svg" width="17.707" height="16.346" viewBox="0 0 17.707 16.346">
  <path id="Path_10657" data-name="Path 10657" d="M9.711,0c-.018,0-.035,0-.053,0a.807.807,0,0,0-.8.852c0,.464.181.841.889.851v0a6.51,6.51,0,0,1,6.307,6.447,6.514,6.514,0,0,1-6.475,6.489A6.423,6.423,0,0,1,3.123,8.718h1.5L2.31,4.876,0,8.718H1.417A8.155,8.155,0,1,0,9.711,0Z" fill="#f1be78"/>
  <path id="Path_10658" data-name="Path 10658" d="M51.734,69.421a.512.512,0,1,1-.512.512A.512.512,0,0,1,51.734,69.421Z" transform="translate(-42.152 -57.128)" fill="#f1be78"/>
  <path id="Path_10659" data-name="Path 10659" d="M70.831,25.764a.511.511,0,1,1-.51.512A.511.511,0,0,1,70.831,25.764Z" transform="translate(-57.869 -21.202)" fill="#f1be78"/>
  <path id="Path_10660" data-name="Path 10660" d="M70.831,60.412a.512.512,0,1,1-.51.512A.512.512,0,0,1,70.831,60.412Z" transform="translate(-57.869 -49.715)" fill="#f1be78"/>
  <path id="Path_10661" data-name="Path 10661" d="M77.251,43.413a.511.511,0,1,1-.51.511A.511.511,0,0,1,77.251,43.413Z" transform="translate(-63.152 -35.726)" fill="#f1be78"/>
  <path id="Path_10662" data-name="Path 10662" d="M40.848,18.979a.74.74,0,0,0-.722-.745h-.156a.734.734,0,0,0-.715.745v4.286l-2.1,2.1a.808.808,0,0,0,0,1.121.786.786,0,0,0,1.119,0l2.32-2.32c.018-.019.032-.039.05-.057a.728.728,0,0,0,.205-.508V18.979Z" transform="translate(-30.389 -15.005)" fill="#f1be78"/>
</svg>
