<svg xmlns="http://www.w3.org/2000/svg" width="12.614" height="12.614" viewBox="0 0 12.614 12.614">
  <g id="fullscreen-video" transform="translate(-903.435 -796.741)">
    <g id="Group_4281" data-name="Group 4281" transform="translate(904.076 800.174) rotate(-45)">
      <path id="Path_10569" data-name="Path 10569" d="M0,0V3.174" transform="translate(1.94 0.285)" fill="none" stroke="#fff" stroke-linecap="round" stroke-width="0.75"/>
      <path id="Path_10570" data-name="Path 10570" d="M3.949,2.011,1.975,0,0,2.011" transform="translate(0 0)" fill="none" stroke="#fff" stroke-linecap="round" stroke-linejoin="round" stroke-width="0.75"/>
    </g>
    <g id="Group_4282" data-name="Group 4282" transform="translate(915.409 805.922) rotate(135)">
      <path id="Path_10569-2" data-name="Path 10569" d="M0,0V3.174" transform="translate(1.94 0.285)" fill="none" stroke="#fff" stroke-linecap="round" stroke-width="0.75"/>
      <path id="Path_10570-2" data-name="Path 10570" d="M3.949,2.011,1.975,0,0,2.011" transform="translate(0 0)" fill="none" stroke="#fff" stroke-linecap="round" stroke-linejoin="round" stroke-width="0.75"/>
    </g>
    <g id="Group_4284" data-name="Group 4284" transform="translate(906.868 808.714) rotate(-135)">
      <path id="Path_10569-3" data-name="Path 10569" d="M0,0V3.174" transform="translate(1.94 0.285)" fill="none" stroke="#fff" stroke-linecap="round" stroke-width="0.75"/>
      <path id="Path_10570-3" data-name="Path 10570" d="M3.949,2.011,1.975,0,0,2.011" transform="translate(0 0)" fill="none" stroke="#fff" stroke-linecap="round" stroke-linejoin="round" stroke-width="0.75"/>
    </g>
    <g id="Group_4283" data-name="Group 4283" transform="translate(912.617 797.381) rotate(45)">
      <path id="Path_10569-4" data-name="Path 10569" d="M0,0V3.174" transform="translate(1.94 0.285)" fill="none" stroke="#fff" stroke-linecap="round" stroke-width="0.75"/>
      <path id="Path_10570-4" data-name="Path 10570" d="M3.949,2.011,1.975,0,0,2.011" transform="translate(0 0)" fill="none" stroke="#fff" stroke-linecap="round" stroke-linejoin="round" stroke-width="0.75"/>
    </g>
  </g>
</svg>
