<svg id="phone" xmlns="http://www.w3.org/2000/svg" width="16.02" height="16.02" viewBox="0 0 16.02 16.02">
  <path id="Path_10434" data-name="Path 10434" d="M13.008,5A8.034,8.034,0,0,0,5,12.957a8.022,8.022,0,0,0,7.956,8.063h.053a8.01,8.01,0,0,0,0-16.02Zm3.88,10.68-.338.338-.018.018a1.64,1.64,0,0,1-1.869.5,6.57,6.57,0,0,1-2.207-1.228A12.587,12.587,0,0,1,9.84,12.512c-.659-1.068-.872-2.189.053-3.115l.018-.018.338-.338a.666.666,0,0,1,.926,0l1.05,1.05a.666.666,0,0,1,0,.926l-.623.623.018.018a9.409,9.409,0,0,0,2.652,2.652l.018.018.623-.623a.666.666,0,0,1,.926,0l1.05,1.05A.635.635,0,0,1,16.889,15.68Z" transform="translate(-4.998 -5)" fill="#f1be78"/>
</svg>
