<svg xmlns="http://www.w3.org/2000/svg" width="19" height="18" viewBox="0 0 19 18">
  <g id="tweet-menu" transform="translate(0 -0.333)">
    <path id="Path_10575" data-name="Path 10575" d="M9.5,0A9.26,9.26,0,0,1,19,9a9.26,9.26,0,0,1-9.5,9A9.26,9.26,0,0,1,0,9,9.26,9.26,0,0,1,9.5,0Z" transform="translate(0 0.333)" fill="#f1be78"/>
    <g id="Group_30" data-name="Group 30" transform="translate(4.708 5.529)">
      <path id="Path_10" data-name="Path 10" d="M1228.651,68a3.79,3.79,0,0,1-1.091.3,1.905,1.905,0,0,0,.835-1.051,3.805,3.805,0,0,1-1.206.461,1.9,1.9,0,0,0-3.237,1.733,5.392,5.392,0,0,1-3.915-1.985,1.9,1.9,0,0,0,.588,2.536,1.891,1.891,0,0,1-.86-.238c0,.008,0,.016,0,.024a1.9,1.9,0,0,0,1.523,1.862,1.891,1.891,0,0,1-.5.067,1.911,1.911,0,0,1-.358-.034,1.9,1.9,0,0,0,1.774,1.319,3.833,3.833,0,0,1-2.812.787,5.4,5.4,0,0,0,8.315-4.551q0-.124-.006-.246a3.857,3.857,0,0,0,.948-.983Zm0,0" transform="translate(-1219.393 -67.11)" fill="#fff"/>
    </g>
  </g>
</svg>
