<svg xmlns="http://www.w3.org/2000/svg" width="52.786" height="42.484" viewBox="0 0 52.786 42.484">
  <g id="util-3" transform="translate(0 -9.759)">
    <g id="Group_4768" data-name="Group 4768" transform="translate(0 9.759)">
      <path id="Path_11050" data-name="Path 11050" d="M5.175,38.32A5.057,5.057,0,0,0,8.95,36.6c.662-.632.961-.889,1.7-.889s1.034.256,1.7.889a5,5,0,0,0,7.549,0c.662-.632.961-.889,1.7-.889s1.034.256,1.7.889a5,5,0,0,0,7.549,0c.663-.632.961-.889,1.7-.889s1.034.256,1.7.889a5,5,0,0,0,7.549,0c.663-.632.961-.889,1.7-.889s1.034.256,1.7.889a5,5,0,0,0,7.549,0l.06-.057v-3.57a5.91,5.91,0,0,0-2.138,1.452c-.663.632-.961.889-1.7.889s-1.034-.257-1.7-.889a5,5,0,0,0-7.549,0c-.663.632-.961.889-1.7.889s-1.035-.257-1.7-.889a5.276,5.276,0,0,0-2.981-1.661V18.281H52.786V16.219h-11.9a7.522,7.522,0,0,0-1.624-4.952,4.777,4.777,0,0,0-3.624-1.508,4.889,4.889,0,0,0-3.645,1.493,7.7,7.7,0,0,0-1.758,4.967H25.775a7.516,7.516,0,0,0-1.624-4.952,4.777,4.777,0,0,0-3.624-1.508,4.889,4.889,0,0,0-3.645,1.493,7.7,7.7,0,0,0-1.759,4.967H0v2.062H15.126v16.75a5.846,5.846,0,0,1-.7-.607,5,5,0,0,0-7.549,0c-.663.632-.961.889-1.7.889s-1.034-.257-1.7-.889A5.122,5.122,0,0,0,0,32.713v3.015c.534.067.835.331,1.4.871A5.058,5.058,0,0,0,5.175,38.32ZM34.234,13.381a1.764,1.764,0,0,1,1.4-.529,1.665,1.665,0,0,1,1.342.5,4.677,4.677,0,0,1,.81,2.864H33.327A4.812,4.812,0,0,1,34.234,13.381Zm-15.106,0a1.764,1.764,0,0,1,1.4-.529,1.663,1.663,0,0,1,1.341.5,4.678,4.678,0,0,1,.81,2.864H18.221A4.808,4.808,0,0,1,19.127,13.381Zm-.906,4.9H30.232v1.527H18.221Zm0,4.62H30.232V27.6H18.221Zm0,7.787H30.232v2.584a7.01,7.01,0,0,0-1.473,1.153c-.663.632-.961.889-1.7.889s-1.034-.257-1.7-.889A5.058,5.058,0,0,0,21.59,32.7a4.755,4.755,0,0,0-3.369,1.343ZM1.358,43.56A2.456,2.456,0,0,0,0,42.695V39.675a5.122,5.122,0,0,1,3.436,1.71c.663.632.961.889,1.7.889s1.034-.256,1.7-.889a5,5,0,0,1,7.55,0c.663.632.961.889,1.7.889s1.034-.256,1.7-.889a5,5,0,0,1,7.549,0c.663.632.961.889,1.7.889s1.034-.256,1.7-.889a5,5,0,0,1,7.549,0c.663.632.961.889,1.7.889s1.035-.256,1.7-.889a5,5,0,0,1,7.549,0c.663.632.961.889,1.7.889s1.035-.256,1.7-.889a5.829,5.829,0,0,1,2.18-1.467v3.546l-.1.1a5,5,0,0,1-7.55,0c-.663-.632-.961-.889-1.7-.889s-1.034.256-1.7.889a5,5,0,0,1-7.549,0c-.663-.632-.961-.889-1.7-.889s-1.034.256-1.7.889a5,5,0,0,1-7.549,0c-.662-.632-.961-.889-1.7-.889s-1.034.256-1.7.889a5,5,0,0,1-7.549,0c-.663-.632-.961-.889-1.7-.889s-1.034.256-1.7.889a5.057,5.057,0,0,1-3.775,1.721A5.058,5.058,0,0,1,1.358,43.56Zm49.248,4.786a5.829,5.829,0,0,1,2.18-1.467v3.546l-.1.1a5,5,0,0,1-7.55,0c-.663-.632-.961-.889-1.7-.889s-1.034.257-1.7.889a5,5,0,0,1-7.549,0c-.663-.632-.961-.889-1.7-.889s-1.034.257-1.7.889a5,5,0,0,1-7.549,0c-.662-.632-.961-.889-1.7-.889s-1.034.257-1.7.889a5,5,0,0,1-7.549,0c-.663-.632-.961-.889-1.7-.889s-1.034.257-1.7.889a5.059,5.059,0,0,1-3.775,1.72,5.058,5.058,0,0,1-3.775-1.721A2.458,2.458,0,0,0,0,49.656V46.637a5.12,5.12,0,0,1,3.436,1.709c.663.632.961.889,1.7.889s1.034-.256,1.7-.889a5,5,0,0,1,7.55,0c.663.632.961.889,1.7.889s1.034-.256,1.7-.889a5,5,0,0,1,7.549,0c.663.632.961.889,1.7.889s1.034-.256,1.7-.889a5,5,0,0,1,7.549,0c.663.632.961.889,1.7.889s1.035-.256,1.7-.889a5,5,0,0,1,7.549,0c.663.632.961.889,1.7.889S49.943,48.979,50.606,48.346Z" transform="translate(0 -9.759)" fill="#f1be78"/>
    </g>
  </g>
</svg>
