<svg xmlns="http://www.w3.org/2000/svg" width="50.703" height="50.703" viewBox="0 0 50.703 50.703">
  <g id="util-1" transform="translate(-0.2 -0.2)">
    <g id="Group_4769" data-name="Group 4769" transform="translate(0.2 0.2)">
      <path id="Path_11051" data-name="Path 11051" d="M49.548,49.309V11.042H45.961V6.578H41.1V.2H39.5V6.5H34.64v4.544H31.052V24.754h-11V11.042H16.463V6.578H11.6V.2H10.006V6.5H5.143v4.544H1.555V49.309H.2V50.9H50.9V49.309Zm-31.092,0H14.47v-5.9H7.056v5.9H3.07V12.637H18.377V49.309Zm12.6,0h-11V32.169h11Zm16.981,0H44.047v-5.9H36.633v5.9H32.647V12.637H47.954V49.309Z" transform="translate(-0.2 -0.2)" fill="#f1be78"/>
      <rect id="Rectangle_2395" data-name="Rectangle 2395" width="3.986" height="3.986" transform="translate(12.277 33.404)" fill="#f1be78"/>
      <rect id="Rectangle_2396" data-name="Rectangle 2396" width="3.986" height="3.986" transform="translate(4.863 33.404)" fill="#f1be78"/>
      <rect id="Rectangle_2397" data-name="Rectangle 2397" width="3.986" height="3.986" transform="translate(12.277 27.106)" fill="#f1be78"/>
      <rect id="Rectangle_2398" data-name="Rectangle 2398" width="3.986" height="3.986" transform="translate(4.863 27.106)" fill="#f1be78"/>
      <rect id="Rectangle_2399" data-name="Rectangle 2399" width="3.986" height="3.986" transform="translate(12.277 14.43)" fill="#f1be78"/>
      <rect id="Rectangle_2400" data-name="Rectangle 2400" width="3.986" height="3.986" transform="translate(4.863 14.43)" fill="#f1be78"/>
      <rect id="Rectangle_2401" data-name="Rectangle 2401" width="3.986" height="3.986" transform="translate(41.854 33.404)" fill="#f1be78"/>
      <rect id="Rectangle_2402" data-name="Rectangle 2402" width="3.986" height="3.986" transform="translate(34.44 33.404)" fill="#f1be78"/>
      <rect id="Rectangle_2403" data-name="Rectangle 2403" width="3.986" height="3.986" transform="translate(41.854 27.106)" fill="#f1be78"/>
      <rect id="Rectangle_2404" data-name="Rectangle 2404" width="3.986" height="3.986" transform="translate(34.44 27.106)" fill="#f1be78"/>
      <rect id="Rectangle_2405" data-name="Rectangle 2405" width="3.986" height="3.986" transform="translate(12.277 20.728)" fill="#f1be78"/>
      <rect id="Rectangle_2406" data-name="Rectangle 2406" width="3.986" height="3.986" transform="translate(4.863 20.728)" fill="#f1be78"/>
      <rect id="Rectangle_2407" data-name="Rectangle 2407" width="3.986" height="3.986" transform="translate(41.854 20.728)" fill="#f1be78"/>
      <rect id="Rectangle_2408" data-name="Rectangle 2408" width="3.986" height="3.986" transform="translate(34.44 20.728)" fill="#f1be78"/>
      <rect id="Rectangle_2409" data-name="Rectangle 2409" width="3.986" height="3.986" transform="translate(41.854 14.43)" fill="#f1be78"/>
      <rect id="Rectangle_2410" data-name="Rectangle 2410" width="3.986" height="3.986" transform="translate(34.44 14.43)" fill="#f1be78"/>
    </g>
  </g>
</svg>
