<svg xmlns="http://www.w3.org/2000/svg" width="62.34" height="54.14" viewBox="0 0 62.34 54.14">
  <g id="util-4" transform="translate(-1328.25 -5871.75)">
    <path id="Path_11061" data-name="Path 11061" d="M29.3,29.211A38.606,38.606,0,0,1,42.812,27a38.606,38.606,0,0,1,13.512,2.213" transform="translate(1316.801 5856.941)" fill="none" stroke="#f1be78" stroke-linecap="round" stroke-linejoin="round" stroke-width="2.5"/>
    <path id="Path_11062" data-name="Path 11062" d="M29.3,39.211A38.606,38.606,0,0,1,42.812,37a38.606,38.606,0,0,1,13.512,2.213" transform="translate(1316.801 5853.375)" fill="none" stroke="#f1be78" stroke-linecap="round" stroke-linejoin="round" stroke-width="2.5"/>
    <path id="Path_11063" data-name="Path 11063" d="M29.3,35.892V14.5c0-2.49,6.048-4.5,13.512-4.5s13.512,2.014,13.512,4.5V35.821" transform="translate(1316.801 5863)" fill="none" stroke="#f1be78" stroke-linecap="round" stroke-linejoin="round" stroke-width="2.5"/>
    <path id="Path_11064" data-name="Path 11064" d="M37.3,47.772a45.684,45.684,0,0,1,16.729,0" transform="translate(1313.948 5849.807)" fill="none" stroke="#f1be78" stroke-linecap="round" stroke-linejoin="round" stroke-width="2.5"/>
    <line id="Line_1" data-name="Line 1" y2="24.451" transform="translate(1351.248 5885.226)" fill="none" stroke="#f1be78" stroke-linecap="round" stroke-linejoin="round" stroke-width="2.5"/>
    <line id="Line_2" data-name="Line 2" y2="12.225" transform="translate(1356.827 5884.582)" fill="none" stroke="#f1be78" stroke-linecap="round" stroke-linejoin="round" stroke-width="2.5"/>
    <line id="Line_3" data-name="Line 3" y2="12.225" transform="translate(1362.399 5884.582)" fill="none" stroke="#f1be78" stroke-linecap="round" stroke-linejoin="round" stroke-width="2.5"/>
    <line id="Line_4" data-name="Line 4" y1="20.654" transform="translate(1367.978 5885.226)" fill="none" stroke="#f1be78" stroke-linecap="round" stroke-linejoin="round" stroke-width="2.5"/>
    <path id="Path_11065" data-name="Path 11065" d="M71.5,28.574,79.865,26V49.164" transform="translate(1301.754 5857.295)" fill="none" stroke="#f1be78" stroke-linecap="round" stroke-linejoin="round" stroke-width="2.5"/>
    <path id="Path_11066" data-name="Path 11066" d="M24.865,28.574,16.5,26V52.381" transform="translate(1321.365 5857.295)" fill="none" stroke="#f1be78" stroke-linecap="round" stroke-linejoin="round" stroke-width="2.5"/>
    <path id="Path_11067" data-name="Path 11067" d="M84.5,32h5.791V54.52" transform="translate(1297.119 5855.156)" fill="none" stroke="#f1be78" stroke-linecap="round" stroke-linejoin="round" stroke-width="2.5"/>
    <path id="Path_11068" data-name="Path 11068" d="M13.291,32H7.5V54.52" transform="translate(1324.574 5855.156)" fill="none" stroke="#f1be78" stroke-linecap="round" stroke-linejoin="round" stroke-width="2.5"/>
    <line id="Line_5" data-name="Line 5" x1="5.148" transform="translate(1351.377 5910.319)" fill="none" stroke="#f1be78" stroke-linecap="round" stroke-linejoin="round" stroke-width="2.5"/>
    <line id="Line_6" data-name="Line 6" x1="7.4" transform="translate(1381.94 5910.319)" fill="none" stroke="#f1be78" stroke-linecap="round" stroke-linejoin="round" stroke-width="2.5"/>
    <line id="Line_7" data-name="Line 7" x1="14.799" transform="translate(1329.5 5910.319)" fill="none" stroke="#f1be78" stroke-linecap="round" stroke-linejoin="round" stroke-width="2.5"/>
    <path id="Path_11069" data-name="Path 11069" d="M79.4,62.71V78.14L69.29,80.269V63.778l2.471-.264,1.081-.109,3.874-.412Z" transform="translate(1302.542 5844.206)" fill="none" stroke="#f1be78" stroke-linecap="round" stroke-linejoin="round" stroke-width="2.5"/>
    <path id="Path_11070" data-name="Path 11070" d="M67.226,80.861,63.5,80.327V64.37h3.726" transform="translate(1304.606 5843.614)" fill="none" stroke="#f1be78" stroke-linecap="round" stroke-linejoin="round" stroke-width="2.5"/>
    <path id="Path_11071" data-name="Path 11071" d="M73.3,62.978s-1.062-6.389,1.6-6.917c3.134-.643,3.217,3.217,3.217,6.383" transform="translate(1301.185 5846.602)" fill="none" stroke="#f1be78" stroke-linecap="round" stroke-linejoin="round" stroke-width="2.5"/>
    <path id="Path_11072" data-name="Path 11072" d="M67.1,61.724c-.051-1.93.193-4.356,1.8-4.678a2.059,2.059,0,0,1,2.394.914,7.38,7.38,0,0,1,.766,3.391" transform="translate(1303.326 5846.259)" fill="none" stroke="#f1be78" stroke-linecap="round" stroke-linejoin="round" stroke-width="2.5"/>
    <path id="Path_11073" data-name="Path 11073" d="M61.4,63.065V60.71l-2.683.283-3.874.412-1.081.109-2.471.264V78.269l7.856-1.654" transform="translate(1308.96 5844.919)" fill="none" stroke="#f1be78" stroke-linecap="round" stroke-linejoin="round" stroke-width="2.5"/>
    <path id="Path_11074" data-name="Path 11074" d="M49.226,78.861,45.5,78.327V62.37h3.726" transform="translate(1311.024 5844.327)" fill="none" stroke="#f1be78" stroke-linecap="round" stroke-linejoin="round" stroke-width="2.5"/>
    <path id="Path_11075" data-name="Path 11075" d="M55.3,60.978s-1.062-6.389,1.6-6.917c3.134-.643,3.217,3.217,3.217,6.383" transform="translate(1307.603 5847.315)" fill="none" stroke="#f1be78" stroke-linecap="round" stroke-linejoin="round" stroke-width="2.5"/>
    <path id="Path_11076" data-name="Path 11076" d="M49.1,59.724c-.051-1.9.193-4.356,1.8-4.678a2.059,2.059,0,0,1,2.394.914,7.38,7.38,0,0,1,.766,3.391" transform="translate(1309.744 5846.973)" fill="none" stroke="#f1be78" stroke-linecap="round" stroke-linejoin="round" stroke-width="2.5"/>
    <path id="Path_11077" data-name="Path 11077" d="M33.578,60.869,26.5,62.8V49.93L33.578,48" transform="translate(1317.799 5849.451)" fill="none" stroke="#f1be78" stroke-linecap="round" stroke-linejoin="round" stroke-width="2.5"/>
    <path id="Path_11078" data-name="Path 11078" d="M63.5,48l7.078,1.93v8.249" transform="translate(1304.606 5849.451)" fill="none" stroke="#f1be78" stroke-linecap="round" stroke-linejoin="round" stroke-width="2.5"/>
  </g>
</svg>
