<svg xmlns="http://www.w3.org/2000/svg" width="22.874" height="22.875" viewBox="0 0 22.874 22.875">
  <g id="Group_4242" data-name="Group 4242" transform="translate(-213.225 -138.718)">
    <g id="Group_3231" data-name="Group 3231" transform="translate(213.225 138.718)">
      <path id="Path_10022" data-name="Path 10022" d="M224.662,161.593A11.437,11.437,0,1,1,236.1,150.155,11.45,11.45,0,0,1,224.662,161.593Zm0-21.646a10.209,10.209,0,1,0,10.209,10.209A10.22,10.22,0,0,0,224.662,139.947Z" transform="translate(-213.225 -138.718)" fill="#fff"/>
    </g>
    <g id="Group_3233" data-name="Group 3233" transform="translate(218.018 145.484)">
      <g id="Group_3232" data-name="Group 3232" transform="translate(0)">
        <path id="Path_10023" data-name="Path 10023" d="M238.154,157.8a2.937,2.937,0,0,0-2.937-2.937H227.6a2.937,2.937,0,0,0-2.937,2.937v3.57a2.937,2.937,0,0,0,2.937,2.937h7.618a2.937,2.937,0,0,0,2.937-2.937Zm-4.806,1.965-3.038,1.666c-.132.072-.251-.024-.251-.174v-3.42c0-.152.122-.247.255-.172l3.059,1.754A.2.2,0,0,1,233.348,159.765Z" transform="translate(-224.662 -154.863)" fill="#fff"/>
      </g>
    </g>
  </g>
</svg>
