<svg class="map-svg" xmlns="http://www.w3.org/2000/svg" x="0px" y="0px" viewBox="0 0 1600 1200">
<path class="st-line" d="M1062.4,53.6c-3-2.1-5.6-4.9-5.8-8.8c-0.1-2.2,0.8-4.4,2.7-5.6
c1.8-1.1,4.5-0.9,5.9,0.8c1,1.3,1.1,3.2,0.9,4.8c-0.9,7-6,10.3-10.3,15.2c-4.2,4.8-7.4,10.8-7.9,17.3c-0.4,5.6,1.3,11.2,2.4,16.7
c1.1,5.3,1.4,11.1,0,16.4c-1.4,5-6.9,2.3-7.9-1.6c-0.5-2-0.4-4.2-0.8-6.2c-0.5-2.9-1.7-4.2-4.3-4.8c-2.2-0.6-3.1-0.7-4.4-2.9
c-2.4-3.8-5-7.6-8.6-10.4c-5.9-4.6-13.9-5.9-21.4-5.2c-7.5,0.8-14.6,3.5-21.6,6.3c-5,2-10,4.1-15.2,5.6c-5.1,1.5-8.3,2.5-11.7,6.9
c-2.5,3.2-4.4,6.9-7.1,9.9c-1,1.1-2.2,2.2-3.7,2.6c-1.5,0.5-3.2,0.2-4.2-0.9c-0.9-1-1-2.5-1.5-3.8c-1.2-3.7-5.6-3.4-8.2-1.6
c-1.7,1.2-3.6,2.8-5.7,2.6c-2.6-0.3-4.2-3.1-6.6-3.6c-2.6-0.4-4.6,2.3-5.6,4.3c-1.2,2.4-2.3,5.2-4.9,6c-2.3,0.8-4.9-0.6-6.6-2.5
c-1.6-1.9-2.5-4.2-3.9-6.3c-3.9-6.1-13.4-11.2-20.7-8.6c-6.7,2.4-14.5,6.8-19.4,12c-3.6,3.9-7.1,8.7-9.6,16.3
c-2.5,7.6-7.4,17.7-10.3,23.7c-2.9,6-5.8,15.1-6.2,19s-1.9,7.4-3.8,12.3c-1.9,4.9-7,15.4-6.5,21.6c0.4,6.2,0.9,26.7,0.7,32.8
c-0.1,6.1,2.2,18.2,2.6,21.5c0.4,3.3,3.5,15.4,3.8,20.2s5.4,24.5,5.4,24.5s3.2,9.6,3.6,13.2c0.4,3.6-2.9,7.1-4.1,9.6
c-1.2,2.5-2.9,3.6-0.4,9.7s15.3,34.1,15.3,34.1l21.8,48.7l16.8,38.3c0,0,12.6,26,14.5,30.6s3.3,6.4,3.3,12.6s0,17.9,2.5,22.1
c1.1,1.9,7.1,13,13.4,24.7l1.8,5.3l0.5-0.4c0-0.1,0-0.2,0-0.3c0.2-8.6,7.2-15.6,15.9-15.6c8.8,0,15.9,7.1,15.9,15.9
s-7.1,15.9-15.9,15.9l-7.3-0.5l0.9,1.9c2.4,4.5,4,7.5,4,7.5s74.8,114.2,76.3,116.3c1.5,2.2,4.9,7.8,8.1,9.7
c3.2,1.9,9.7,6.4,14.3,11.9c4.6,5.5,12.9,17.1,13.8,22.1c0.9,4.9,4.4,5.7,6,8.7c1.6,3.1,10.6,19.3,11.6,20.6s14.8,17.9,18.6,20.3
c3.8,2.5,50.1,36.7,54.6,38.8c4.5,2,8.4,3.9,11.2,8.1c2.3,3.5,5.3,6.8,8.5,9.6c3.6,3.2,7.2,4.4,11.7,5.7c10.6,3,19.4,10,28.5,15.8
c5,3.2,10,5.8,15.6,7.8c3.9,1.4,6.6,4.3,9.4,7.2c2.9,3.1,6,5.9,9.3,8.6c6.6,5.3,13.8,9.9,21.4,13.5c1.9,0.9,3.9,1.7,6,1.5
s4.2-1.9,4.1-4c0-2-1.9-3.5-3.6-4.6c-9.3-6.4-19-12.9-30.1-14.9c-1.3-0.2-2.7-0.4-4-0.1c-2.5,0.6-2.3,1.9-2.9,3.8
c-0.7,2.6-2.6,5.1-3.9,7.5c-1.7,3.1-3.3,6.2-5,9.3c-1.2,2.1,4.8,4.8,4.8,4.8l34.5,22.7c0,0,29.6,19.2,34.5,24.6
c4.8,5.4,8.7,13,8.9,22.9c0.2,9.9,2.3,24.2,8.5,37.4s37.4,92.4,37.4,92.4l29.7,96.8"></path>
<g class="dot-top">
<g data-dot="dot-01">
<path fill="#FFFFFF" d="M941.2,57.4c-8.4,0-15.2,6.8-15.2,15.2s15.2,24.7,15.2,24.7s15.2-16.3,15.2-24.7C956.4,64.2,949.6,57.4,941.2,57.4z"></path>
<path fill="#AF6800" d="M942.3,62c0,0.4-0.3,0.7-0.7,0.7s-0.7-0.3-0.7-0.7s0.3-0.7,0.7-0.7S942.3,61.6,942.3,62"></path>
<path fill="#AF6800" d="M949.6,71.5c0.2,0,0.3-0.2,0.3-0.3v-0.6l-0.7,0.1v0.8H949.6z"></path>
<path fill="#AF6800" d="M950.7,69.1c-2.7,0.4-4,0.6-9.1,0.6c-4.9,0-6.3-0.2-9.1-0.6v0.6c3.1,0.5,4.2,0.7,9.1,0.7c5,0,6.1-0.2,9.1-0.7V69.1z"></path>
<rect x="936.3" y="72.5" fill="#AF6800" width="2.1" height="0.7"></rect>
<rect x="944.7" y="72.5" fill="#AF6800" width="2.1" height="0.7"></rect>
<rect x="940.5" y="72.5" fill="#AF6800" width="2.1" height="0.7"></rect>
<path fill="#AF6800" d="M943.9,65.8l-2.2-0.9c-0.1,0-0.2,0-0.3,0l-2,0.9C940.9,66.1,942.4,66.1,943.9,65.8z"></path>
<path fill="#AF6800" d="M941.2,64.2c0.3-0.1,0.5-0.1,0.8,0l0.6,0.3c0-0.6-0.5-1.1-1.1-1.1s-1.1,0.5-1.1,1.1C940.5,64.5,940.4,64.5,941.2,64.2z"></path>
<path fill="#AF6800" d="M934.6,70.8v3.5c4.7,0.4,9.4,0.4,14,0v-3.5c-2.3,0.3-4.7,0.4-7,0.4C939.2,71.2,936.9,71.1,934.6,70.8 M939.1,73.2c0,0.4-0.3,0.7-0.7,0.7h-2.1c-0.4,0-0.7-0.3-0.7-0.7v-0.7c0-0.4,0.3-0.7,0.7-0.7h2.1c0.4,0,0.7,0.3,0.7,0.7V73.2z M944,72.5c0-0.4,0.3-0.7,0.7-0.7h2.1c0.4,0,0.7,0.3,0.7,0.7v0.7c0,0.4-0.3,0.7-0.7,0.7h-2.1c-0.4,0-0.7-0.3-0.7-0.7V72.5z M943.3,72.5v0.7c0,0.4-0.3,0.7-0.7,0.7h-2.1c-0.4,0-0.7-0.3-0.7-0.7v-0.7c0-0.4,0.3-0.7,0.7-0.7h2.1
C943,71.8,943.3,72.2,943.3,72.5z"></path>
<path fill="#AF6800" d="M935.2,67.4c4.4,0.4,8.8,0.3,13.2,0l0.6-1.1c-1.3,0.5-2.7,0.4-4-0.1c-2.1,0.7-4.4,0.7-6.5,0c-1.3,0.5-2.6,0.5-3.9,0.1l0,0L935.2,67.4z"></path>
<path fill="#AF6800" d="M941.6,69c5.2,0,6.4-0.2,9.8-0.7c0-0.8,0-0.7,0-0.7c-3.1,0.4-4.5,0.7-9.8,0.7c-5.1,0-6.5-0.2-9.8-0.7c-0.1,0-0.1-0.1-0.1,0.7C935.3,68.8,936.3,69,941.6,69z"></path>
<path fill="#AF6800" d="M941.6,76.7c-6.8,0-7.8-0.5-9.1-0.6v0.6c1.9,0.2,2.6,0.7,9.1,0.7c6.3,0,7.7-0.6,9.1-0.7v-0.6C949.4,76.3,948.3,76.7,941.6,76.7z"></path>
<path fill="#AF6800" d="M947.9,78.9h0.3c0.2,0,0.4-0.2,0.4-0.3v-0.7c-0.2,0-0.5,0.1-0.7,0.1V78.9z"></path>
<path fill="#AF6800" d="M936,77.9v3.7h11.2v-3.7C943.5,78.2,939.7,78.2,936,77.9 M941.2,80.3c0,0.4-0.3,0.7-0.7,0.7h-2.8c-0.4,0-0.7-0.3-0.7-0.7v-0.7c0-0.4,0.3-0.7,0.7-0.7h2.8c0.4,0,0.7,0.3,0.7,0.7V80.3z M941.9,79.6c0-0.4,0.3-0.7,0.7-0.7h2.8c0.4,0,0.7,0.3,0.7,0.7v0.7c0,0.4-0.3,0.7-0.7,0.7h-2.8c-0.4,0-0.7-0.3-0.7-0.7V79.6z"></path>
<rect x="937.7" y="79.6" fill="#AF6800" width="2.8" height="0.7"></rect>
<path fill="#AF6800" d="M951.4,74.6c-1.1,0-2.2,0.7-9.8,0.7c-5.4,0-6.8-0.2-9.8-0.7c-0.1,0-0.1-0.1-0.1,0.7c3.4,0.5,4.5,0.7,9.8,0.7c6.8,0,8.3-0.5,9.8-0.7C951.4,74.6,951.4,74.6,951.4,74.6z"></path>
<rect x="942.6" y="79.6" fill="#AF6800" width="2.8" height="0.7"></rect>
<path fill="#AF6800" d="M934.6,78.5c0,0.2,0.2,0.3,0.3,0.3h0.4v-1c-0.2,0-0.5-0.1-0.7-0.1V78.5z"></path>
<path fill="#AF6800" d="M933.5,71.5h0.4v-0.8l-0.7-0.1v0.6C933.2,71.3,933.3,71.5,933.5,71.5"></path>
</g>
<g data-dot="dot-02">
<path fill="#FFFFFF" d="M812.7,179.9c-8.4,0-15.2,6.8-15.2,15.2s15.2,24.7,15.2,24.7s15.2-16.3,15.2-24.7S821.1,179.9,812.7,179.9z"></path>
<path fill="#AF6800" d="M808.8,198.3c2.3,0,4.2-2.2,4.2-4.8c0-2-1.2-3.2-1.2-3.3c0-0.2,0.2-0.7,0.2-1.4c0-2.3-1.4-4.2-3.1-4.2
c-1.7,0-3.2,1.9-3.2,4.2c0,0.7,0.2,1.2,0.2,1.4c-0.1,0.1-1.2,1.3-1.2,3.3C804.6,196.2,806.5,198.3,808.8,198.3z"></path>
<path fill="#AF6800" d="M805.1,202.5H822c0.3,0,0.5-0.2,0.5-0.5s-0.2-0.5-0.5-0.5h-0.5v-1.1h0.5c0.3,0,0.5-0.2,0.5-0.5
s-0.2-0.5-0.5-0.5h-0.5v-1.6c0-0.3-0.2-0.5-0.5-0.5h-3.2c-0.3,0-0.5,0.2-0.5,0.5v1.6h-0.5c-0.3,0-0.5,0.2-0.5,0.5s0.2,0.5,0.5,0.5h0.5v1.1h-2.1v-2.2c-0.3,0.1-0.7,0.1-1,0.1c-0.4,0-0.7,0-1.1-0.1v2.2H810v-2.2c-0.3,0.1-0.7,0.1-1,0.1c-0.4,0-0.7,0-1-0.1v2.2h-2.7c-0.3,0-0.5,0.2-0.5,0.5C804.6,202.3,804.8,202.5,805.1,202.5 M818.3,200.4h2.1v1h-2.1V200.4z"></path>
<path fill="#AF6800" d="M812.9,190c0.9,1.3,1.2,2.7,1.2,3.6c0,1.7-0.7,3.3-1.7,4.3c0.5,0.3,1.1,0.4,1.7,0.4c2.3,0,4.2-2.2,4.2-4.8c0-2.1-1.2-3.2-1.2-3.3c0-0.2,0.2-0.7,0.2-1.4c0-2.3-1.4-4.2-3.1-4.2c-0.8,0-1.4,0.4-2,1
c0.6,0.9,0.9,2,0.9,3.3C813,189.3,813,189.7,812.9,190z"></path>
</g>
<g data-dot="dot-03">
<path fill="#FFFFFF" d="M692.7,152.9c-8.4,0-15.2,6.8-15.2,15.2s15.2,24.7,15.2,24.7s15.2-16.3,15.2-24.7C708,159.7,701.2,152.9,692.7,152.9z"></path>
<path fill="#AF6800" d="M700.2,173.6h-14.9c-0.4,0-0.7,0.3-0.7,0.7s0.3,0.7,0.7,0.7h14.9c0.4,0,0.7-0.3,0.7-0.7C701,173.9,700.6,173.6,700.2,173.6z"></path>
<path fill="#AF6800" d="M686.2,171.6c-0.4,0-0.7,0.3-0.7,0.7s0.3,0.8,0.7,0.8h13.1c0.4,0,0.7-0.3,0.7-0.8c0-0.4-0.3-0.7-0.7-0.7
h-0.2v-6.7h0.2c0.2,0,0.4-0.2,0.4-0.4s-0.2-0.4-0.4-0.4h-13.1c-0.2,0-0.4,0.2-0.4,0.4s0.2,0.4,0.4,0.4h0.2v6.7H686.2L686.2,171.6
z M697.6,171.6h-2.2v-6.7h2.2V171.6z M693.9,171.6h-2.2v-6.7h2.2V171.6z M687.9,164.9h2.2v6.7h-2.2V164.9z"></path>
<path fill="#AF6800" d="M685.3,163.5h14.9l0,0c0.4,0,0.7-0.3,0.7-0.7c0-0.3-0.2-0.6-0.5-0.7l-7.4-3.3c-0.2-0.1-0.4-0.1-0.6,0L685,162c-0.3,0.1-0.5,0.5-0.4,0.8C684.6,163.2,684.9,163.5,685.3,163.5z"></path>
</g>
<g data-dot="dot-04">
<path fill="#FFFFFF" d="M755.9,220.6c-8.4,0-15.2,6.8-15.2,15.2s15.2,24.7,15.2,24.7s15.2-16.3,15.2-24.7C771.1,227.4,764.3,220.6,755.9,220.6z"></path>
<polygon fill="#AF6800" points="759.4,238.9 752.3,238.9 752.3,242.3 759.4,241"></polygon>
<path fill="#AF6800" d="M744,236.5h2.2c1.7-0.7,3.2-1.6,4.6-2.7c0.3-0.3,0.7-0.5,1-0.8v-1c-2,1.9-4.4,3.3-7,4.2C744.6,236.4,744.3,236.5,744,236.5z"></path>
<path fill="#AF6800" d="M769.7,236.6c-0.1-0.1-2.5-1.5-3.3-2c-1.1-0.8-2.2-1.6-3.2-2.6c-0.2-0.2-0.5-0.5-0.7-0.7
c-1.2-1.3-2.2-2.7-3-4.2v-1.4h-0.9v1.2h-0.7v-0.3c0-0.1,0-0.1-0.1-0.2c-0.1-0.1-0.3-0.1-0.4,0c0,0-0.1,0.1-0.1,0.2v0.3h-1.4v-0.3
c0-0.1,0-0.1-0.1-0.2c-0.1-0.1-0.3-0.1-0.4,0c0,0-0.1,0.1-0.1,0.2v0.3h-1.4v-0.3c0-0.1,0-0.1-0.1-0.2c-0.1-0.1-0.3-0.1-0.4,0
c0,0-0.1,0.1-0.1,0.2v0.3h-0.5l0,0v-1.2h-0.9v1.9l-0.1,0.1c-1.1,1.4-2.3,2.8-3.5,4c-1.2,1.1-2.5,2-3.8,2.9
c-0.9,0.6-1.9,1.2-2.8,1.8c-0.2,0.1-0.3,0.3-0.3,0.5v0.9c0,0.3,0.3,0.6,0.6,0.6h27c0.3,0,0.6-0.3,0.6-0.6V237
C770,236.9,769.8,236.7,769.7,236.6 M752.3,231.6v5.4h-9.7c0,0,0.1-0.1,0.2-0.1c0,0,0.1,0,0.1-0.1c1.9-1.2,3.8-2.5,5.5-3.9
c0.8-0.7,1.6-1.4,2.4-2.2c0.5-0.5,0.9-1,1.3-1.6c0.1-0.1,0.1-0.2,0.2-0.3V231.6z M757.6,237h-3.4v-5.9c0-0.3,0.1-0.7,0.3-0.9
c1,1,2,1.9,3.1,2.7L757.6,237L757.6,237z M757.6,231.9c-0.9-0.7-1.8-1.5-2.6-2.3c0.3-0.2,0.6-0.3,0.9-0.3c0.9,0,1.7,0.8,1.7,1.7
L757.6,231.9L757.6,231.9z M759.4,237v-2.8c1.2,0.8,2.4,1.4,3.7,1.9c1.1,0.4,2.2,0.7,3.3,0.9L759.4,237z M763.2,235.3
c-0.7-0.3-1.4-0.6-2.1-1c-0.5-0.3-1-0.6-1.5-0.9c-0.1,0-0.1-0.1-0.2-0.1v-4.7c1.2,2,2.8,3.7,4.6,5.3c0.4,0.4,0.9,0.8,1.3,1.1
c0.7,0.5,1.4,1.1,2.2,1.5c0,0,0,0,0.1,0C766.1,236.2,764.6,235.8,763.2,235.3z"></path>
</g>
<g data-dot="dot-05">
<path fill="#FFFFFF" d="M634.8,234.4c-7.8,0-14.1,6.3-14.1,14.1s14.1,22.9,14.1,22.9s14.1-15.1,14.1-22.9C648.9,240.7,642.6,234.4,634.8,234.4z"></path>
<path fill="#AF6800" d="M638.4,253.4v-0.1c0.3-0.2,0.7-0.4,1-0.6c0.3-0.2,0.5-0.6,0.6-1v-0.1c0.1-0.1,0.1-0.1,0.1-0.2v-9.2
c0-0.2-0.1-0.5-0.2-0.7s-0.3-0.4-0.5-0.6c-0.2-0.2-0.5-0.4-0.7-0.5c-0.3-0.1-0.5-0.2-0.7-0.2h-6.6c-0.2,0-0.5,0.1-0.7,0.2
c-0.3,0.2-0.5,0.3-0.7,0.5c-0.2,0.2-0.4,0.4-0.5,0.6c-0.1,0.3-0.2,0.5-0.2,0.7v9.4c0,0.2,0,0.3,0.1,0.5s0.2,0.3,0.3,0.5
c0.1,0.1,0.3,0.3,0.4,0.4c0.1,0.1,0.3,0.2,0.4,0.3c0,0,0.1,0,0.3,0.1c0.1,0,0.2,0.1,0.2,0.1l-2.7,4.1h1.6l2-2.9h5.4l2,2.9v-0.2
h1.8L638.4,253.4z M633.3,241.3c0-0.1,0-0.1,0.1-0.2c0.1-0.1,0.1-0.1,0.2-0.1h2.5c0,0,0,0.1,0.1,0.1s0.1,0.1,0.1,0.1v1
c0,0.1,0,0.2-0.1,0.2c-0.1,0.1-0.2,0.1-0.2,0.1h-2.5c0-0.1-0.1-0.1-0.1-0.1s-0.1-0.1,0-0.2c-0.1,0-0.1-0.1-0.1-0.1V241.3z
M630.6,244c0-0.1,0.1-0.3,0.1-0.4c0-0.2,0.1-0.3,0.2-0.4c0.1,0,0.2-0.1,0.3-0.2c0.1-0.1,0.3-0.1,0.4-0.1h6.2c0.1,0,0.3,0,0.4,0.1
c0.1,0,0.2,0.1,0.3,0.2c0.1,0.1,0.2,0.2,0.2,0.3c0.1,0.1,0.1,0.3,0.1,0.4v2.1c0,0.1,0,0.2-0.1,0.3c0,0.1-0.1,0.2-0.2,0.3
c-0.2,0.1-0.3,0.2-0.4,0.2c-0.1,0.1-0.3,0.1-0.4,0.1h-6h-0.1c0-0.1-0.1-0.1-0.1-0.1c-0.2,0-0.4-0.1-0.7-0.3
c-0.1-0.2-0.2-0.5-0.2-0.7V244z M632.5,252.2c-0.2,0.2-0.5,0.3-0.8,0.3s-0.5-0.1-0.7-0.3c-0.2-0.2-0.3-0.5-0.3-0.8
s0.1-0.5,0.3-0.7c0.2-0.2,0.4-0.3,0.7-0.3s0.6,0.1,0.8,0.3c0.2,0.1,0.3,0.4,0.3,0.7S632.7,252,632.5,252.2z M637.1,252.2
c-0.2-0.2-0.3-0.5-0.3-0.8s0.1-0.5,0.3-0.7c0.2-0.2,0.4-0.3,0.7-0.3s0.5,0.1,0.7,0.3c0.2,0.2,0.3,0.4,0.3,0.7s-0.1,0.6-0.3,0.8
c-0.2,0.2-0.4,0.3-0.6,0.3C637.6,252.5,637.3,252.4,637.1,252.2z"></path>
</g>
<g data-dot="dot-06">
<path fill="#FFFFFF" d="M661.9,332.1c-8.2,0-14.8,6.6-14.8,14.8c0,8.2,14.8,24,14.8,24s14.8-15.9,14.8-24C676.7,338.7,670.1,332.1,661.9,332.1z"></path>
<path fill="#AF6800" d="M669.3,342.5l-3.2,3l2,8.2l-1.2,1.2l-3.9-6.3l-0.1-0.1l-4,3.8c0,0,0,0-0.1,0.1l-0.1,2.9l-4.4-4.4l2.9-0.1
c0,0,0,0,0.1-0.1l3.8-4l0,0l-6.4-3.9l1.2-1.2l8.1,2.1l3.1-3.3c0.6-0.6,1.6-0.6,2.2,0C669.9,340.9,669.9,341.9,669.3,342.5z"></path>
</g>
<g data-dot="dot-07">
<path fill="#FFFFFF" d="M872.4,361.4c-8.4,0-15.2,6.8-15.2,15.2c0,8.4,15.2,24.7,15.2,24.7s15.2-16.3,15.2-24.7C887.6,368.3,880.8,361.4,872.4,361.4z"></path>
<path fill="#AF6800" d="M881,379.7h-1.4l-1.5,0.9c-0.7,0.4-1.4,0.3-1.7,0l-1.3-1H862c-0.5,0-1,0.4-1,1c0,0.4,0.3,1,0.9,1
c0.1,0,2.1,0,2.1,0c0.5-0.4,1.2-0.6,1.8-0.6c0.7,0,1.3,0.2,1.8,0.6h1.5c0.5-0.4,1.2-0.6,1.8-0.6c0.7,0,1.3,0.2,1.8,0.6h1.5
c0.5-0.4,1.2-0.6,1.8-0.6s1.3,0.2,1.8,0.6h2.9c0.5,0,1-0.4,1-1C882,380.1,881.5,379.7,881,379.7z"></path>
<path fill="#AF6800" d="M879.7,382.4c-0.2,0.2-0.5,0.3-0.8,0.3s-0.6-0.1-0.8-0.3c-0.5-0.5-1.1-0.7-1.8-0.7s-1.3,0.3-1.8,0.7
c-0.2,0.2-0.5,0.3-0.8,0.3s-0.6-0.1-0.8-0.3c-1-1-2.5-1-3.5,0c-0.2,0.2-0.5,0.3-0.8,0.3s-0.6-0.1-0.8-0.3c-1-1-2.5-1-3.5,0
c-0.2,0.2-0.5,0.3-0.8,0.3s-0.6-0.1-0.8-0.3c-0.3-0.3-0.7-0.3-0.9,0c-0.3,0.3-0.3,0.7,0,0.9c1,1,2.5,1,3.5,0
c0.2-0.2,0.5-0.4,0.8-0.4s0.6,0.1,0.8,0.4c0.5,0.5,1.1,0.7,1.8,0.7s1.3-0.3,1.8-0.7c0.2-0.2,0.5-0.4,0.8-0.4s0.6,0.1,0.8,0.4
c1,1,2.5,1,3.5,0c0.2-0.2,0.5-0.4,0.8-0.4s0.6,0.1,0.8,0.4c1,1,2.5,1,3.5,0c0.3-0.3,0.3-0.7,0-0.9S880,382.2,879.7,382.4"></path>
<path fill="#AF6800" d="M863.2,378.3c2.4,0.3,5.2,0.6,5.2,0.6s1.6,0,5.7,0l-0.5-0.4l3.3,1.5c0.3,0.1,0.6,0.1,0.8-0.1
c3.1-2,2.9-1.8,2.9-1.9c0.4-0.3,0.4-0.8,0.2-1.2c-0.3-0.3-0.8-0.4-1.1-0.2l-2.5,1.6l-3-1.3l1.2,0.2c0-0.3-0.2-0.6-0.4-0.8
c-0.3-0.2-0.7-0.4-1-0.4h-4.1c-0.9,0-1.8,0.4-2.3,1l-2.9-0.3l1-2.8c0.2-0.5-0.1-1-0.6-1.2s-1,0.1-1.2,0.6l-1.4,3.9
c-0.1,0.3-0.1,0.6,0.1,0.8C862.6,378.1,862.9,378.3,863.2,378.3z"></path>
<path fill="#AF6800" d="M877.8,374.8L877.8,374.8c-0.9,0-1.7,0.7-1.7,1.6c0,0.3,0.1,0.7,0.3,0.9l0.6,0.1c2.4-1.6,2.3-1.4,2.4-1.5
C879.2,375.2,878.6,374.8,877.8,374.8z"></path>
<path fill="#AF6800" d="M874,370.1l1.2,0.4c0,0,0.1,0,0.1,0.1v0.1l-0.5,1.1c0,0.1,0,0.1,0,0.2c0,0,0.1,0.1,0.2,0l1.2-0.3h0.1
l0.1,0.1l0.2,1.2c0,0.1,0,0.1,0.1,0.1s0.1,0,0.2,0l0.8-0.9h0.1h0.1l0.8,0.9c0,0,0.1,0.1,0.2,0c0.1,0,0.1-0.1,0.1-0.1l0.2-1.2
c0,0,0-0.1,0.1-0.1h0.1l1.2,0.3c0.1,0,0.1,0,0.2,0c0,0,0-0.1,0-0.2l-0.5-1.1v-0.1c0,0,0-0.1,0.1-0.1l1.2-0.4
c0.1,0,0.1-0.1,0.1-0.1c0-0.1,0-0.1-0.1-0.1l-1-0.7l-0.1-0.1V369l0.8-1c0,0,0-0.1,0-0.2s-0.1-0.1-0.1-0.1H880c0,0-0.1,0-0.1-0.1
v-0.1l0.1-1.2c0-0.1,0-0.1-0.1-0.1c0,0-0.1,0-0.2,0l-1.1,0.6h-0.1c0,0-0.1,0-0.1-0.1l-0.6-1.1c0-0.1-0.1-0.1-0.1-0.1
c-0.1,0-0.1,0-0.1,0.1l-0.6,1.1c0,0,0,0.1-0.1,0.1h-0.1l-1.1-0.6c0,0-0.1,0-0.2,0l-0.1,0.1l0.1,1.2v0.1c0,0-0.1,0-0.1,0.1h-1.2
c-0.1,0-0.1,0-0.1,0.1s0,0.1,0,0.2l0.8,1v0.1c0,0,0,0.1-0.1,0.1l-1,0.7l-0.1,0.1C873.9,370,874,370.1,874,370.1 M877.8,367.2
c1.2,0,2.1,0.9,2.1,2.1s-0.9,2.1-2.1,2.1c-1.2,0-2.1-0.9-2.1-2.1C875.7,368.2,876.7,367.2,877.8,367.2z"></path>
</g>
<g data-dot="dot-08">
<path fill="#FFFFFF" d="M883.2,427.2c-8.4,0-15.2,6.8-15.2,15.2c0,8.4,15.2,24.7,15.2,24.7s15.2-16.3,15.2-24.7S891.6,427.2,883.2,427.2z"></path>

<path fill="#AF6800" d="M888.7,443l0.7,1.4l-1,1.2l-0.9-1.1L888.7,443z M881.9,435.7l1,2.4c0,0.1,0.1,0.2,0.2,0.2
c0.1,0,0.2,0,0.3-0.1l1-1l0.8,1.7l-1,1.3l-1.1-1.1c-0.1-0.1-0.3-0.1-0.4,0l-1,0.8l-0.8-1.6L881.9,435.7z M877.1,441.3l0.9,2
l-1.6,3.8l0.6,0.3l1.7-4l0,0l0,0l1.8-4.2l0.7,1.4c0,0.1,0.1,0.2,0.2,0.2c0.1,0,0.2,0,0.3-0.1l1.1-0.9l1.2,1.2
c0.1,0.1,0.2,0.1,0.2,0.1l0,0c0.1,0,0.2-0.1,0.2-0.1l1.1-1.3l1.8,4l-3,3.8l0.5,0.4l2.2-2.7l1.1,1.3c0.1,0.1,0.2,0.1,0.3,0.1
s0.2,0,0.3-0.1l1-1.3l2.6,5.2h-18.1L877.1,441.3z"></path>
<path fill="#AF6800" d="M883.2,430.4c0.9,0,1.7,0.8,1.7,1.7c0,0.9-0.8,1.7-1.7,1.7s-1.7-0.8-1.7-1.7C881.5,431.2,882.3,430.4,883.2,430.4z"></path>
</g>
<g data-dot="dot-09">

<path fill="#FFFFFF" d="M881.1,489.1c-8.4,0-15.2,6.8-15.2,15.2c0,8.4,15.2,24.7,15.2,24.7s15.2-16.3,15.2-24.7C896.3,495.9,889.5,489.1,881.1,489.1z"></path>
<path fill="#AF6800" d="M875,494.8L875,494.8c-0.2,0-0.3,0.1-0.5,0.2c-0.1,0.1-0.2,0.3-0.2,0.5v10.1c0,0.4,0.3,0.7,0.7,0.7
c1.6,0,4.2,0.3,6,2.2v-10.6c0-0.1,0-0.2-0.1-0.3C879.4,495.1,876.6,494.8,875,494.8z"></path>
<path fill="#AF6800" d="M888.8,505.6v-10.1c0-0.2-0.1-0.3-0.2-0.5c-0.1-0.1-0.3-0.2-0.5-0.2l0,0c-1.6,0-4.4,0.4-5.9,2.8
c-0.1,0.1-0.1,0.2-0.1,0.3v10.6c1.8-1.9,4.4-2.2,6-2.2C888.5,506.3,888.8,506,888.8,505.6z"></path>
<path fill="#AF6800" d="M890.3,497.1h-0.5v8.5c0,0.9-0.8,1.7-1.7,1.7c-1.3,0-3.5,0.3-5.1,1.7c2.7-0.7,5.5-0.2,7.1,0.1
c0.2,0,0.4,0,0.6-0.1c0.2-0.1,0.3-0.3,0.3-0.5v-10.7C891,497.4,890.7,497.1,890.3,497.1z"></path>
<path fill="#AF6800" d="M873.3,505.6v-8.5h-0.5c-0.4,0-0.7,0.3-0.7,0.7v10.7c0,0.2,0.1,0.4,0.3,0.5s0.4,0.2,0.6,0.1
c1.6-0.4,4.5-0.8,7.2-0.1c-1.6-1.5-3.8-1.7-5.1-1.7C874,507.3,873.3,506.5,873.3,505.6z"></path>
</g>
<g data-dot="dot-10">
<path fill="#FFFFFF" d="M868,553.7c-8.4,0-15.2,6.8-15.2,15.2s15.2,24.7,15.2,24.7s15.2-16.3,15.2-24.7S876.4,553.7,868,553.7z"></path>
<path fill="#AF6800" d="M861.4,559.8L861.4,559.8c-0.2,0-0.3,0.1-0.5,0.2c-0.1,0.1-0.2,0.3-0.2,0.5v10.1c0,0.4,0.3,0.7,0.7,0.7c1.6,0,4.2,0.3,6,2.2v-10.6c0-0.1,0-0.2-0.1-0.3C865.9,560.2,863,559.8,861.4,559.8z"></path>
<path fill="#AF6800" d="M875.2,570.6v-10.1c0-0.2-0.1-0.4-0.2-0.5c-0.1-0.1-0.3-0.2-0.5-0.2l0,0c-1.6,0-4.4,0.4-5.9,2.8c-0.1,0.1-0.1,0.2-0.1,0.3v10.6c1.8-1.9,4.5-2.2,6-2.2C874.9,571.3,875.2,571,875.2,570.6z"></path>
<path fill="#AF6800" d="M876.7,562.1h-0.5v8.5c0,0.9-0.8,1.7-1.7,1.7c-1.3,0-3.5,0.3-5.1,1.7c2.7-0.7,5.5-0.2,7.1,0.1c0.2,0,0.4,0,0.6-0.1c0.2-0.1,0.3-0.3,0.3-0.5v-10.7C877.4,562.4,877.1,562.1,876.7,562.1z"></path>
<path fill="#AF6800" d="M859.7,570.6v-8.5h-0.5c-0.4,0-0.7,0.3-0.7,0.7v10.7c0,0.2,0.1,0.4,0.3,0.5s0.4,0.2,0.6,0.1c1.6-0.4,4.5-0.8,7.2-0.1c-1.6-1.5-3.8-1.7-5.1-1.7C860.5,572.3,859.7,571.5,859.7,570.6z"></path>
</g>
<g data-dot="dot-11">
<path fill="#FFFFFF" d="M938.5,584.8c-8.4,0-15.2,6.8-15.2,15.2s15.2,24.7,15.2,24.7s15.2-16.3,15.2-24.7S946.9,584.8,938.5,584.8z"></path>

<path fill="#AF6800" d="M936.6,591.2l2,1.1l-1.3,2.3l0.7,0.4c0.7-1.3,1.8-3.2,2.2-4c0.2-0.3,0.2-0.6,0.1-0.9
c-0.1-0.3-0.3-0.5-0.5-0.7l-1.7-0.9c-0.3-0.1-0.6-0.2-0.9-0.1c-0.3,0.1-0.5,0.3-0.7,0.5l-0.4,0.7c-0.1,0.3-0.2,0.6-0.1,0.9C936.1,590.8,936.3,591,936.6,591.2z"></path>

<path fill="#AF6800" d="M944.1,596.6c0.3,0.1,0.6,0.2,0.9,0.1c0.3-0.1,0.5-0.3,0.7-0.5l0.4-0.7c0.1-0.3,0.2-0.6,0.1-0.9
c-0.1-0.3-0.3-0.5-0.5-0.7L944,593c-0.3-0.1-0.6-0.2-0.9-0.1c-0.5,0.1-0.7,0.5-0.9,0.9c0,0,0.1-0.3-1.5,2.7l0.7,0.4l0.7-1.3
C942.3,595.6,941.3,595.1,944.1,596.6z"></path>
<path fill="#AF6800" d="M939.6,595.9l2.8-5l2,1.1c0.3,0.1,0.6,0.2,0.9,0.1c0.3-0.1,0.5-0.3,0.7-0.5l0.4-0.7
c0.1-0.3,0.2-0.6,0.1-0.9c-0.1-0.3-0.3-0.5-0.5-0.7l-1.7-0.9c-0.6-0.3-1.2-0.1-1.5,0.4l-3.7,6.7L939.6,595.9z"></path>
<path fill="#AF6800" d="M930.4,609.1l2.3,1.3c0.2,0.1,0.4,0.1,0.5-0.1l0.3-0.4l-3.2-1.7l-0.1,0.5C930.2,608.8,930.2,609,930.4,609.1z"></path>

<path fill="#AF6800" d="M943.8,610.8c0,0.2,0.2,0.4,0.4,0.4h1.6c0.3,0,0.5-0.2,0.7-0.4c0.1-0.3,0.1-0.6-0.1-0.8l-5-7l0.7-1.2
c0.2-0.3,0.1-0.7-0.2-1l-0.4-0.3l-3.2,5.9c0.6,0.2,0.7,0.3,1,0.1l2.7,3.9h-1.6c-0.2,0-0.4,0.2-0.4,0.4s0.2,0.4,0.4,0.4h1.6
c0.3,0,0.5-0.2,0.7-0.4c0.1-0.3,0.1-0.6,0-0.8l-2.8-4.1l1.2-2.2l4.8,6.7h-1.6C944,610.4,943.8,610.6,943.8,610.8z"></path>
<path fill="#AF6800" d="M929.6,606.9c1.2,0.7,4.2,2.3,5.3,3c0.1,0,0.2,0.1,0.3,0c0.1,0,0.2-0.1,0.2-0.2l6.3-11.3
c0-0.1,0.1-0.2,0-0.3c0-0.1-0.1-0.2-0.2-0.2l-5.3-3c-0.1,0-0.2-0.1-0.3,0c-0.1,0-0.2,0.1-0.2,0.2l-6.3,11.3
c-0.1,0.1-0.1,0.2,0,0.3C929.5,606.8,929.5,606.9,929.6,606.9 M935.7,596.8l0.4-0.7c0.1-0.1,0.2-0.2,0.3-0.2s0.3,0.1,0.3,0.2
c0.1,0.1,0.1,0.3,0,0.4l-0.4,0.7c0,0.1-0.1,0.2-0.2,0.2c-0.1,0-0.2,0-0.3,0s-0.2-0.1-0.2-0.2C935.6,597,935.6,596.9,935.7,596.8
M930.9,605.4l4.1-7.3c0.1-0.1,0.2-0.2,0.3-0.2s0.3,0.1,0.3,0.2c0.1,0.1,0.1,0.3,0,0.4l-4.1,7.3c-0.1,0.2-0.3,0.3-0.5,0.2
c-0.1,0-0.2-0.1-0.2-0.2C930.8,605.6,930.8,605.5,930.9,605.4z"></path>
</g>
<g data-dot="dot-12">
<path fill="#FFFFFF" d="M982.5,625c-8.4,0-15.2,6.8-15.2,15.2s15.2,24.7,15.2,24.7s15.2-16.3,15.2-24.7C997.7,631.9,990.9,625,982.5,625z"></path>

<path fill="#AF6800" d="M980.6,631.4l2,1.1l-1.3,2.3l0.7,0.4c0.7-1.3,1.8-3.2,2.2-4c0.1-0.3,0.2-0.6,0.1-0.9
c-0.1-0.3-0.3-0.5-0.5-0.7l-1.7-0.9c-0.3-0.1-0.6-0.2-0.9-0.1c-0.3,0.1-0.5,0.3-0.7,0.5l-0.4,0.7c-0.1,0.3-0.2,0.6-0.1,0.9
C980.1,631,980.3,631.2,980.6,631.4z"></path>
<path fill="#AF6800" d="M988,636.8c0.3,0.1,0.6,0.2,0.9,0.1c0.3-0.1,0.5-0.3,0.7-0.5l0.4-0.7c0.1-0.3,0.2-0.6,0.1-0.9
c-0.1-0.3-0.3-0.5-0.5-0.7l-1.7-0.9c-0.3-0.1-0.6-0.2-0.9-0.1c-0.5,0.1-0.7,0.5-0.9,0.9c0,0,0.1-0.3-1.5,2.7l0.7,0.4l0.7-1.3C986.2,635.8,985.3,635.3,988,636.8z"></path>

<path fill="#AF6800" d="M983.6,636.1l2.8-5l2,1.1c0.3,0.2,0.6,0.2,0.9,0.1c0.3-0.1,0.5-0.3,0.7-0.5l0.4-0.7
c0.1-0.3,0.2-0.6,0.1-0.9c-0.1-0.3-0.3-0.5-0.5-0.7l-1.7-0.9c-0.6-0.3-1.2-0.1-1.5,0.4l-3.7,6.7L983.6,636.1z"></path>
<path fill="#AF6800" d="M974.4,649.3l2.3,1.3c0.2,0.1,0.4,0.1,0.5-0.1l0.3-0.4l-3.2-1.7l-0.1,0.5C974.1,649,974.2,649.2,974.4,649.3z"></path>

<path fill="#AF6800" d="M987.8,651c0,0.2,0.2,0.4,0.4,0.4h1.6c0.3,0,0.5-0.2,0.7-0.4c0.1-0.3,0.1-0.6-0.1-0.8l-5-7l0.7-1.2
c0.2-0.3,0.1-0.7-0.2-1l-0.4-0.3l-3.2,5.9c0.6,0.2,0.7,0.3,1,0.1l2.7,3.9h-1.6c-0.2,0-0.4,0.2-0.4,0.4s0.2,0.4,0.4,0.4h1.6
c0.3,0,0.5-0.2,0.7-0.4c0.1-0.2,0.1-0.6,0-0.8l-2.8-4.1l1.2-2.2l4.8,6.7h-1.6C987.9,650.6,987.8,650.8,987.8,651z"></path>
<path fill="#AF6800" d="M973.6,647.1c1.2,0.7,4.2,2.3,5.3,3c0.1,0.1,0.2,0.1,0.3,0c0.1,0,0.2-0.1,0.2-0.2l6.3-11.3
c0-0.1,0.1-0.2,0-0.3c0-0.1-0.1-0.2-0.2-0.2l-5.3-3c-0.1-0.1-0.2-0.1-0.3,0c-0.1,0-0.2,0.1-0.2,0.2l-6.3,11.3
c-0.1,0.1-0.1,0.2,0,0.3C973.4,647,973.5,647.1,973.6,647.1 M979.7,637l0.4-0.7c0.1-0.1,0.2-0.2,0.3-0.2s0.3,0.1,0.3,0.2
c0.1,0.1,0.1,0.3,0,0.4l-0.4,0.7c0,0.1-0.1,0.2-0.2,0.2c-0.1,0-0.2,0-0.3,0s-0.2-0.1-0.2-0.2C979.6,637.2,979.6,637.1,979.7,637
M974.8,645.6l4.1-7.3c0.1-0.1,0.2-0.2,0.3-0.2s0.3,0.1,0.3,0.2c0.1,0.1,0.1,0.3,0,0.4l-4.1,7.3c-0.1,0.2-0.3,0.2-0.5,0.1
c-0.1,0-0.2-0.1-0.2-0.2C974.8,645.8,974.8,645.7,974.8,645.6z"></path>
</g>
<g data-dot="dot-13">
<path fill="#FFFFFF" d="M947.3,726.2c-8.4,0-15.2,6.8-15.2,15.2s15.2,24.7,15.2,24.7s15.2-16.3,15.2-24.7S955.7,726.2,947.3,726.2z"></path>
<path fill="#AF6800" d="M940.8,732.5L940.8,732.5c-0.2,0-0.3,0.1-0.5,0.2c-0.1,0.1-0.2,0.3-0.2,0.5v10.1c0,0.4,0.3,0.7,0.7,0.7c1.6,0,4.2,0.3,6,2.2v-10.6c0-0.1,0-0.2-0.1-0.3C945.2,732.9,942.3,732.5,940.8,732.5z"></path>
<path fill="#AF6800" d="M954.5,743.3v-10.1c0-0.2-0.1-0.4-0.2-0.5c-0.1-0.1-0.3-0.2-0.5-0.2c-1.6,0-4.4,0.4-5.9,2.8c-0.1,0.1-0.1,0.2-0.1,0.3v10.6c1.8-1.9,4.4-2.2,6-2.2C954.2,744,954.5,743.7,954.5,743.3z"></path>
<path fill="#AF6800" d="M956.1,734.8h-0.5v8.5c0,0.9-0.8,1.7-1.7,1.7c-1.3,0-3.5,0.3-5.1,1.7c2.7-0.7,5.5-0.2,7.1,0.1c0.2,0,0.4,0,0.6-0.1c0.2-0.1,0.3-0.3,0.3-0.5v-10.7C956.7,735.1,956.4,734.8,956.1,734.8z"></path>
<path fill="#AF6800" d="M939,743.3v-8.5h-0.5c-0.4,0-0.7,0.3-0.7,0.7v10.7c0,0.2,0.1,0.4,0.3,0.5s0.4,0.2,0.6,0.1c1.6-0.4,4.5-0.8,7.2-0.1c-1.6-1.5-3.8-1.7-5.1-1.7C939.8,745,939,744.2,939,743.3z"></path>
</g>
</g>
</svg>