<svg id="Group_4512" data-name="Group 4512" xmlns="http://www.w3.org/2000/svg" width="1920" height="940" viewBox="0 0 1920 940">
  <rect id="Rectangle_2350" data-name="Rectangle 2350" width="1920" height="940" fill="rgba(255,255,255,0)"/>
  <path id="Path_10832" data-name="Path 10832" d="M291.532,1054.885l70.117-6.319,113.736-10.8,30.37-3.261,24.663-2.038,33.177,16.343v99.8l4.233,1.987v3.146H562.72v7.552l5.107,2.509v2.453h-3.919v125.983l3.919,1.6v1.942h-6.08l-14.1-3.735-16.453-4.562-24.748.968-.138-1.521-30.14,1.936-62.215,2.212v2.281l-52.841,2.422v-2.229l-51.645,3.153-26.8,1.1v-3.083l9.214-.511V1170.955l-8.892-2.169v-3.108h8.785v-7.291l-9.107-2.092v-3.944h8.987Z" transform="translate(35.125 -807.667)" fill="#f0ae61" opacity="0.4"/>
  <path id="Path_10833" data-name="Path 10833" d="M291.879,1294.2V1170.955l-8.892-2.169v-3.108h8.785v-7.291l-9.107-2.092v-3.944h8.987l-.12-97.466,238.886-22.421,33.684,16.592v4.61l-33.684-16-234.27,21.519.313,95.052-9.636.727h0l9.9,3.224-.118,9.517-10.029.082h0l9.883,3.056.015,123.358Z" transform="translate(35.125 -807.667)" fill="#ffac3b"/>
  <path id="Union_15" data-name="Union 15" d="M222.708-5698.673v-3.282H192.6v2.5H137.83v-3.329h-7.717v2.426H77.164v-2.822H6.99v-75.236H280.475l-.545,77.092H269.324v1.92h-8.565v-1.477h-13.9v2.21Zm154.908-1.688h-70.2l-.552-74.771h1l-.391-48.433h-4.293v-3.052h4.293v-9.416h-4.293v-3.021h4.378v-94.714h-4.378v-2.8h4.683v-2.991h71.176v-18.353H373.43v-3.594L437.2-5964l92.758,26.81v2.37h-3.981l.229,119.015h3.752v2.981h-4.67v10.548h5.963v4.357h-6.114v21.139l-87.981-4.5-.339.036,52.59,2.828,34.731,1.639v72.542l-86.277,3.877ZM203.7-5778.419H6.577l.307-50.526H0v-3.142H6.884v-9.712H0v-3.4H6.887v-99.879H0v-2.723l9.733-.37,65.707-1.486,41.454-2.1,52.715-2.846,53.828-1.98,25.491-1.332,18.437,4.053,17.324,4.579v1.986h-3.252l-.507,100.958,4.495.837v2.63H280.93v9.561l4.495,1.076v2.391H280.93l.545,51.424Z" transform="translate(317.79 6448.045)" fill="#f0ae61" opacity="0.4"/>
  <path id="Union_10" data-name="Union 10" d="M6.61-5709.3v-76.083H6.7v-47.742H0v-7.259H6.979v-5.025H0v-8.1H8.954v-96.372l-6.887.159v-4.164L250.994-5964l35.762,8.633v2.859l-3.254.564-32.959-7.839L13.986-5949.361l.919,98.079H2.067v3.994H12.279v9.115H2.974v2.962h9.175l.678,50.706h-.051v75.208Z" transform="translate(315.724 6454.131)" fill="#ffac3b" stroke="rgba(0,0,0,0)" stroke-miterlimit="10" stroke-width="1"/>
  <path id="Path_10836" data-name="Path 10836" d="M557.226,1077.579l70.953-6.313v-50.031l58.245-2.47,88.357,55.155v60.094l4.332,2.454v3.126h-4.95v5.991l4.95,3.256v2.345h-4.038v155.685l4.038,1.4v2.345l-5.221-.755-86.552-27.233-29.108,1.252v-1.072h-4.745v2.023l-25.121,1.039v10.034h-5.783v3.594H628.2v7.293l-50.346,2.381-.17,1.443-25.343.938v-2.381h4.252V1189.8h-4.252v-3.427h4.594v-8.1l-4.594-.784v-2.745l4.855-.523Z" transform="translate(68.636 -809.369)" fill="#f0ae61" opacity="0.4"/>
  <g id="Group_4437" data-name="Group 4437" transform="translate(619.178 209.396)">
    <g id="Group_4436" data-name="Group 4436" transform="translate(0 0)">
      <path id="Path_10842" data-name="Path 10842" d="M686.623,1018.765l-58.245,2.47v50.031l-70.953,6.313-.032,94.578-6.652,1.317v4.917l4.829,1.58v5h-4.829v7.1l4.741.044-.05,116.966h3.7V1189.311l-6.061-.048.1-2.308h5.868l.108-8.31-5.69-1.5-.009-1.655,7.383-1.219-.064-93.721,71-6.267-.27-49.523,54.38-2.429,89.1,55.247v-3.659Z" transform="translate(-550.741 -1018.765)" fill="#ffac3b"/>
    </g>
  </g>
  <path id="Union_9" data-name="Union 9" d="M4.869-5700.285v-75.4H4.9l.112-47.068H.762v-4.949H5.2v-7.261H.715v-5.318H4.923l.036-92.041H0v-5.376H4.709v-1.862H77.655v-18.353H72.042v-3.594L135.814-5964l92.758,26.81v2.37h-3.4l-89.3-25.843-54.812,1.682v22.64H2.022v2.519h6.36v95.214l-5.825.064v1.968H8.21v10.61H2.766v1.431H8.21l.009,48.848h.009l.239,75.4Z" transform="translate(619.178 6448.045)" fill="#ffac3b"/>
  <g id="Group_4510" data-name="Group 4510" transform="translate(2375 -5961)">
    <path id="Path_10864" data-name="Path 10864" d="M290.655,1515.87l194.462,2.055h66.54l11.939-3.177h97.778v4.86h32.709v1.869H716.7l21.869-1.682,11.215-.187,39.251-2.431,26.292-2.429v44.413s-40.427,7.366-60.117,8.216-73.373-.708-73.373-.708H575.557s-4.2-13.423-22.566-13.143-17.807,8.131-30.7.841-9.252-5.327-31.682-5.327-19.345-6.168-19.345-6.168l-19.064-5.047,1.1-6.525-42.145,2.107-14.75,6.059-14.751-8.429-39.511,1.844-10.537,4.214-10.009-.79-1.055-5.795-37.87,1.317v-15.8Z" transform="translate(-2337.875 5216.264)" fill="#f0ae61" opacity="0.4"/>
    <g id="Group_4446" data-name="Group 4446" transform="translate(-2057.177 6729.044)">
      <path id="Path_10841" data-name="Path 10841" d="M284.85,1532.045h-3.935V1514.31l9.92-.191,142.819,1.51,117.969.546L563.555,1513h100v4.859h32.71v1.87h20.574l21.91-1.682,11.215-.188,39.161-2.426,26.234-2.424.362,3.917-26.293,2.43-39.31,2.435-11.246.19-21.959,1.683H692.333v-1.87h-32.71v-4.859H564.069l-11.942,3.178-118.5-.548-142.772-1.51-6,.116Z" transform="translate(-280.915 -1512.998)" fill="#ffac3b"/>
    </g>
  </g>
  <g id="Group_4511" data-name="Group 4511" transform="translate(2373 -5964)">
    <path id="Union_13" data-name="Union 13" d="M302.2,88.3h-2.318V82.12h2.539V78.256L275.861,64.35v4.056L242.176,51.814,3.29,74.235,3,66.758,0,54.776H3.348V39.691h3V34.512l10.748-1.233,17.446,7.576V30.812H44.582l11.278,6.7v3.7h2.82V32.221H72.971V25.349L185.454,12.875l6.216,3.706h5.737V9.17h9.8l7.411,10.279h3.705V16.582l6.693,2.988,17.092-1.913,9.085,5.02h8.6v2.63h4.782V38.694s13.505-9.681,30.6,1.553a83.025,83.025,0,0,1,25.693,27.9V61.425L334.9,70.211V62.385l15.283-8.492h23.184l.083,35.02L302.2,95.225Zm217.854,3.268L431.693,36.412l-59.838,2.644V25.241h4.161V10.1l19.8-2.588V3.236l3.624,2.072,4.66-2.589,3.827,1.942L412.259,0,420.8,4.66h10.615l16.569,2.848v2.2l10.743-.777,51.13,35.208V54.5h3.235v3.624l7.637,5.307V77.8l2.848,1.812V93.716Z" transform="translate(-2049.634 6136.983)" fill="#f1be78" stroke="rgba(0,0,0,0)" stroke-miterlimit="10" stroke-width="1" opacity="0.4"/>
    <path id="Path_10875" data-name="Path 10875" d="M766.575,1077.945l3.529,2.149v-14.109l-2.848-1.812V1049.8l-7.637-5.307v-3.624h-3.236v-10.355l-51.13-35.208-10.744.777v-2.2l-16.569-2.848H667.327l-8.543-4.66-4.328,4.66-3.827-1.942-4.66,2.589-3.624-2.071v4.272l-19.8,2.589v15.145h-4.161v28.653" transform="translate(-2296.158 5150.606)" fill="none" stroke="#ffac3b" stroke-miterlimit="10" stroke-width="2"/>
    <path id="Path_10877" data-name="Path 10877" d="M660.434,1039.257H637.806l-15.283,8.492v7.826l-14.027-8.786v6.719a83.033,83.033,0,0,0-25.693-27.9c-17.092-11.235-30.6-1.554-30.6-1.554v-13.387h-4.781v-2.63h-8.605l-9.084-5.02-17.092,1.912-6.693-2.988v2.868h-3.706l-7.411-10.279h-9.8v7.411H479.3l-6.216-3.706L360.6,1010.713v6.871H346.3v8.987h-2.82v-3.7l-11.277-6.7H322.162v10.044l-17.445-7.576-10.748,1.233v5.178h-3v15.085H289.4l1.572,12.1,1.286,7.286" transform="translate(-2337.259 5151.62)" fill="none" stroke="#ffac3b" stroke-miterlimit="10" stroke-width="3"/>
  </g>
</svg>
