<svg id="insta-menu" xmlns="http://www.w3.org/2000/svg" width="18.667" height="18.667" viewBox="0 0 18.667 18.667">
  <path id="Path_654" data-name="Path 654" d="M9.333,0A9.333,9.333,0,1,1,0,9.333,9.333,9.333,0,0,1,9.333,0Z" fill="#f1be78"/>
  <g id="Group_31" data-name="Group 31" transform="translate(4.675 4.296)">
    <g id="Group_41" data-name="Group 41">
      <path id="Path_395" data-name="Path 395" d="M6.743,0H2.567A2.566,2.566,0,0,0,0,2.567V6.745A2.566,2.566,0,0,0,2.567,9.31H6.745A2.568,2.568,0,0,0,9.312,6.743V2.567A2.569,2.569,0,0,0,6.743,0ZM8.558,6.732A1.825,1.825,0,0,1,6.732,8.558H2.577A1.825,1.825,0,0,1,.752,6.732V2.577A1.825,1.825,0,0,1,2.577.752H6.732A1.825,1.825,0,0,1,8.558,2.577Z" fill="#fff"/>
      <path id="Path_396" data-name="Path 396" d="M13.382,10.93a2.453,2.453,0,1,0,2.454,2.454A2.453,2.453,0,0,0,13.382,10.93Zm0,4.052a1.6,1.6,0,1,1,1.6-1.6A1.6,1.6,0,0,1,13.382,14.982Z" transform="translate(-8.727 -8.727)" fill="#fff"/>
      <path id="Path_397" data-name="Path 397" d="M34.06,8.34a.55.55,0,1,1-.55-.55A.55.55,0,0,1,34.06,8.34Z" transform="translate(-26.318 -6.22)" fill="#fff"/>
    </g>
  </g>
</svg>
