<svg id="Group_25" data-name="Group 25" xmlns="http://www.w3.org/2000/svg" width="22.289" height="22.288" viewBox="0 0 22.289 22.288">
  <g id="Group_24" data-name="Group 24" transform="translate(0 0)">
    <path id="Path_47" data-name="Path 47" d="M466.035,225.919a11.144,11.144,0,1,1,11.144-11.144A11.157,11.157,0,0,1,466.035,225.919Zm0-21.23a10.085,10.085,0,1,0,10.085,10.086A10.1,10.1,0,0,0,466.035,204.69Zm3.757,5.564a.825.825,0,1,0,.825.825A.825.825,0,0,0,469.793,210.254Zm-3.666,1.057a3.464,3.464,0,1,0,3.464,3.464A3.468,3.468,0,0,0,466.127,211.311Zm0,5.683a2.219,2.219,0,1,1,2.219-2.219A2.222,2.222,0,0,1,466.127,216.994Zm6.99-5.1a4.225,4.225,0,0,0-4.226-4.225h-5.577a4.225,4.225,0,0,0-4.225,4.225v5.577a4.225,4.225,0,0,0,4.225,4.225h5.577a4.226,4.226,0,0,0,4.226-4.225Zm-1.323,5.577a2.9,2.9,0,0,1-2.9,2.9h-5.577a2.9,2.9,0,0,1-2.9-2.9V211.9a2.9,2.9,0,0,1,2.9-2.9h5.577a2.9,2.9,0,0,1,2.9,2.9Z" transform="translate(-454.891 -203.631)" fill="#fff"/>
  </g>
</svg>
