  <svg
    class="logo"
    xmlns="http://www.w3.org/2000/svg"
    viewBox="0 0 221.809 300.475"
    height="500"
  >
    <g id="Group_4363" transform="translate(-389.133 -379.352)">
      <g id="Group_4358" transform="translate(474.152 379.352)">
        <path
          class="path"
          stroke="#4CADC1"
          stroke-width="1"
          stroke-linejoin="round"
          stroke-linecap="round"
          stroke-dasharray="300"
          stroke-dashoffset="300"
          fill="none"
          d="M417.224,379.352V528.406l7.442-7.513V386.865Z"
          transform="translate(-395.299 -379.352)"
        />
        <path
          id="Path_10698"
          d="M420.189,382.547v204.58l7.441-7.513V390.06Z"
          transform="translate(-386.978 -370.383)"
          class="path"
          stroke="#4CADC1"
          stroke-width="1"
          stroke-linejoin="round"
          stroke-linecap="round"
          stroke-dasharray="300"
          stroke-dashoffset="300"
          fill="none"
        />
        <path
          id="Path_10699"
          d="M423.11,391.277v85.561l7.441-7.513V398.79Z"
          transform="translate(-378.779 -345.879)"
          class="path"
          stroke="#4CADC1"
          stroke-width="1"
          stroke-linejoin="round"
          stroke-linecap="round"
          stroke-dasharray="300"
          stroke-dashoffset="300"
          fill="none"
        />
        <path
          id="Path_10700"
          d="M421.785,390.154v165.6l-7.441-7.513V397.667Z"
          transform="translate(-403.385 -349.03)"
          class="path"
          stroke="#4CADC1"
          stroke-width="1"
          stroke-linejoin="round"
          stroke-linecap="round"
          stroke-dasharray="300"
          stroke-dashoffset="300"
          fill="none"
        />
        <path
          id="Path_10701"
          d="M424.666,418.177v70.193l-7.442-7.513V425.69Z"
          transform="translate(-395.299 -270.369)"
          class="path"
          stroke="#4CADC1"
          stroke-width="1"
          stroke-linejoin="round"
          stroke-linecap="round"
          stroke-dasharray="300"
          stroke-dashoffset="300"
          fill="none"
        />
        <path
          id="Path_10702"
          d="M418.907,422.464v32.575l-7.442-7.513V429.977Z"
          transform="translate(-411.465 -258.337)"
          class="path"
          stroke="#4CADC1"
          stroke-width="1"
          stroke-linejoin="round"
          stroke-linecap="round"
          stroke-dasharray="300"
          stroke-dashoffset="300"
          fill="none"
        />
      </g>
      <g id="Group_4362" transform="translate(389.133 631.535)">
        <g id="Group_4361">
          <g id="Group_4359" transform="translate(62.4 36.943)">
            <path
              id="Path_10703"
              d="M407.241,456.979a6.018,6.018,0,0,1,4.15-1.656,5.552,5.552,0,0,1,5.592,4.1h-1.717a3.9,3.9,0,0,0-3.876-2.509,4.239,4.239,0,0,0-2.95,1.192,3.9,3.9,0,0,0,0,5.688,4.239,4.239,0,0,0,2.95,1.191,4.069,4.069,0,0,0,3.978-2.653h1.7a5.706,5.706,0,0,1-5.676,4.245,5.946,5.946,0,0,1-4.15-1.652,5.454,5.454,0,0,1,0-7.945Z"
              transform="translate(-405.524 -455.228)"
              class="path"
              stroke="#4CADC1"
              stroke-width="1"
              stroke-linejoin="round"
              stroke-linecap="round"
              stroke-dasharray="300"
              stroke-dashoffset="300"
              fill="none"
            />
            <path
              id="Path_10704"
              d="M411.863,464.842h5.577v1.607h-7.325V455.34h7.306v1.607h-5.558v3.129h5.44V461.7h-5.44Z"
              transform="translate(-392.634 -455.18)"
              class="path"
              stroke="#4CADC1"
              stroke-width="1"
              stroke-linejoin="round"
              stroke-linecap="round"
              stroke-dasharray="300"
              stroke-dashoffset="300"
              fill="none"
            />
            <path
              id="Path_10705"
              d="M413.594,466.471V455.332l1.34.015,5.848,7.835v-7.835H422.5v11.124h-1.374l-5.8-7.77v7.77Z"
              transform="translate(-382.871 -455.203)"
              class="path"
              stroke="#4CADC1"
              stroke-width="1"
              stroke-linejoin="round"
              stroke-linecap="round"
              stroke-dasharray="300"
              stroke-dashoffset="300"
              fill="none"
            />
            <path
              id="Path_10706"
              d="M421.07,466.506v-9.548h-3.636v-1.622h8.985v1.622H422.8v9.548Z"
              transform="translate(-372.093 -455.191)"
              class="path"
              stroke="#4CADC1"
              stroke-width="1"
              stroke-linejoin="round"
              stroke-linecap="round"
              stroke-dasharray="300"
              stroke-dashoffset="300"
              fill="none"
            />
            <path
              id="Path_10707"
              d="M423.711,460.818h2.022a1.944,1.944,0,1,0,0-3.86h-2.657v9.5h-1.717V455.336h4.374a3.586,3.586,0,0,1,3.91,3.544,3.427,3.427,0,0,1-3.1,3.4l3.792,4.18h-2.25l-4.37-4.88Z"
              transform="translate(-361.078 -455.191)"
              class="path"
              stroke="#4CADC1"
              stroke-width="1"
              stroke-linejoin="round"
              stroke-linecap="round"
              stroke-dasharray="300"
              stroke-dashoffset="300"
              fill="none"
            />
            <path
              id="Path_10708"
              d="M432.432,463.293h-4.306c-.464,1.016-1.062,2.353-1.439,3.274h-1.873l4.823-11.269h1.268l4.82,11.269h-1.854Zm-3.655-1.508h2.985l-1.473-3.929Z"
              transform="translate(-351.377 -455.298)"
              class="path"
              stroke="#4CADC1"
              stroke-width="1"
              stroke-linejoin="round"
              stroke-linecap="round"
              stroke-dasharray="300"
              stroke-dashoffset="300"
              fill="none"
            />
            <path
              id="Path_10709"
              d="M430.8,464.842h5.642v1.607h-7.374V455.34H430.8Z"
              transform="translate(-339.436 -455.18)"
              class="path"
              stroke="#4CADC1"
              stroke-width="1"
              stroke-linejoin="round"
              stroke-linecap="round"
              stroke-dasharray="300"
              stroke-dashoffset="300"
              fill="none"
            />
          </g>
          <g id="Group_4360">
            <path
              id="Path_10710"
              d="M412.07,445.653v24.886h-5.5v-10.6H394.638v10.6h-5.5V445.653h5.5v8.988h11.927v-8.988Z"
              transform="translate(-389.133 -445.428)"
              class="path"
              stroke="#4CADC1"
              stroke-width="1"
              stroke-linejoin="round"
              stroke-linecap="round"
              stroke-dasharray="300"
              stroke-dashoffset="300"
              fill="none"
            />
            <path
              id="Path_10711"
              d="M405.819,454.389l3.461,5.981-5.608,9.757-.3.51h-6.906l.849-1.473Zm20.649,16.248h-6.9l-.3-.51-5.166-8.984-2.532-4.4-.1-.175-3.461-5.981.011-.019.274-.484,2.254-3.914.267-.552h1.321l.255.548,2.258,3.917,10.976,19.081Z"
              transform="translate(-368.541 -445.527)"
              class="path"
              stroke="#4CADC1"
              stroke-width="1"
              stroke-linejoin="round"
              stroke-linecap="round"
              stroke-dasharray="300"
              stroke-dashoffset="300"
              fill="none"
            />
            <path
              id="Path_10712"
              d="M426.551,452.75a6.924,6.924,0,0,1-1.976,4.835,7.357,7.357,0,0,1-2.711,1.782,5.837,5.837,0,0,1-1.024.278,8.832,8.832,0,0,1-1.127.232h-8.878V470.57h-5.5V454.55h5.5v.011h8.33a1.813,1.813,0,1,0,0-3.624l-.126,0-.012,0-.038,0H418.1v-.012H405.331v-5.3h14.181s.59.069,1.127.171.925.213.925.213A7.129,7.129,0,0,1,426.551,452.75Z"
              transform="translate(-343.665 -445.459)"
              class="path"
              stroke="#4CADC1"
              stroke-width="1"
              stroke-linejoin="round"
              stroke-linecap="round"
              stroke-dasharray="300"
              stroke-dashoffset="300"
              fill="none"
            />
            <path
              id="Path_10713"
              d="M433.427,452.75a6.942,6.942,0,0,1-1.976,4.835,7.37,7.37,0,0,1-2.714,1.782,5.8,5.8,0,0,1-1.02.278,8.918,8.918,0,0,1-1.131.232h-8.878V470.57h-5.5V454.55h5.5v.011h8.33a1.814,1.814,0,1,0,0-3.624l-.122,0-.015,0-.038,0h-.891v-.012H412.2v-4.3l0-.994h14.181s.59.069,1.127.171.925.213.925.213A7.134,7.134,0,0,1,433.427,452.75Z"
              transform="translate(-324.376 -445.459)"
              class="path"
              stroke="#4CADC1"
              stroke-width="1"
              stroke-linejoin="round"
              stroke-linecap="round"
              stroke-dasharray="300"
              stroke-dashoffset="300"
              fill="none"
            />
            <path
              id="Path_10714"
              d="M444.131,445.623l-1.2,1.58-8.493,11.17-.255.335-.012.015-.011.011v0l-.2.259v11.627h-5.5V459l-.2-.266,0,0-.008-.011-.011-.015-.259-.339-8.49-11.166-1.2-1.58H425.1l.312.407,5.794,7.621,5.8-7.621.308-.407Z"
              transform="translate(-307.312 -445.513)"
              class="path"
              stroke="#4CADC1"
              stroke-width="1"
              stroke-linejoin="round"
              stroke-linecap="round"
              stroke-dasharray="300"
              stroke-dashoffset="300"
              fill="none"
            />
            <path
              id="Path_10715"
              d="M452.967,458.086a12.921,12.921,0,1,1-12.913-12.422A12.688,12.688,0,0,1,452.967,458.086Zm-12.913-7.237a7.243,7.243,0,1,0,7.523,7.237A7.394,7.394,0,0,0,440.053,450.849Z"
              transform="translate(-282.436 -445.397)"
              class="path"
              stroke="#4CADC1"
              stroke-width="1"
              stroke-linejoin="round"
              stroke-linecap="round"
              stroke-dasharray="300"
              stroke-dashoffset="300"
              fill="none"
            />
            <path
              id="Path_10716"
              d="M456.231,445.731v24.974h-1.317l-3.887-3.738-6.521-6.274-3.769-3.628-5.505-5.292v-6.179H436.6l14.128,13.591V445.731Zm-21,11.261,5.505,5.3v8.387h-5.505Z"
              transform="translate(-259.733 -445.594)"
              class="path"
              stroke="#4CADC1"
              stroke-width="1"
              stroke-linejoin="round"
              stroke-linecap="round"
              stroke-dasharray="300"
              stroke-dashoffset="300"
              fill="none"
            />
            <path
              id="Path_10717"
              d="M462.43,450.937v-5.3H442.049v3.051h-.007v16.817h.008v5.065H462.43v-5.3H447.554v-5.354h9.836v-5.3h-9.882v-3.691Z"
              transform="translate(-240.621 -445.462)"
              class="path"
              stroke="#4CADC1"
              stroke-width="1"
              stroke-linejoin="round"
              stroke-linecap="round"
              stroke-dasharray="300"
              stroke-dashoffset="300"
              fill="none"
            />
          </g>
        </g>
      </g>
    </g>
  </svg>