<svg xmlns="http://www.w3.org/2000/svg" width="18.415" height="18.384" viewBox="0 0 18.415 18.384">
  <g id="lookup" transform="translate(-1910.457 484.4)">
    <path id="Path_1" data-name="Path 1" d="M23.766,21.733a9.328,9.328,0,0,0,.781-1.4,7.614,7.614,0,0,0,0-6A8.1,8.1,0,0,0,22.9,11.862a7.217,7.217,0,0,0-2.468-1.645,7.614,7.614,0,0,0-6,0,8.1,8.1,0,0,0-2.468,1.645,7.217,7.217,0,0,0-1.645,2.468,7.614,7.614,0,0,0,0,6A8.1,8.1,0,0,0,11.962,22.8a7.217,7.217,0,0,0,2.468,1.645,7.614,7.614,0,0,0,6,0,6.717,6.717,0,0,0,1.4-.781l3.907,3.907a1.39,1.39,0,0,0,1.974,0,1.365,1.365,0,0,0,0-1.933Zm-2.756.823a6.418,6.418,0,0,1-3.619,1.152,6.354,6.354,0,1,1,6.334-6.375,6.121,6.121,0,0,1-1.152,3.619A5.28,5.28,0,0,1,21.01,22.555Z" transform="translate(1900.757 -494)" fill="#fff"/>
  </g>
</svg>
