<svg id="mail" xmlns="http://www.w3.org/2000/svg" width="15.765" height="11.824" viewBox="0 0 15.765 11.824">
  <g id="Group_4217" data-name="Group 4217" transform="translate(0 0)">
    <path id="Path_10431" data-name="Path 10431" d="M12.068,21.883a.434.434,0,0,1-.185.039.5.5,0,0,1-.185-.035L4,18.62v6.062a1.971,1.971,0,0,0,1.971,1.971H17.794a1.971,1.971,0,0,0,1.971-1.971V18.62Z" transform="translate(-4 -14.828)" fill="#f1be78"/>
    <path id="Path_10432" data-name="Path 10432" d="M11.883,15.1l7.883-3.342v-.788A1.971,1.971,0,0,0,17.794,9H5.971A1.971,1.971,0,0,0,4,10.971v.788Z" transform="translate(-4 -9)" fill="#f1be78"/>
  </g>
</svg>
