<svg xmlns="http://www.w3.org/2000/svg" width="44" height="43.29" viewBox="0 0 44 43.29">
  <g id="util-2" transform="translate(-2 -2)">
    <g id="Group_138" data-name="Group 138" transform="translate(2 2)">
      <rect id="Rectangle_56" data-name="Rectangle 56" width="2" height="2" transform="translate(1 10.29)" fill="#f1be78"/>
      <rect id="Rectangle_57" data-name="Rectangle 57" width="1" height="2" transform="translate(33 0.29)" fill="#f1be78"/>
      <rect id="Rectangle_58" data-name="Rectangle 58" width="3" height="1" transform="translate(41 9.29)" fill="#f1be78"/>
      <path id="Path_640" data-name="Path 640" d="M44.569,22.2H42.4V20.759A18.636,18.636,0,0,0,32.3,4.128V2.722A.722.722,0,0,0,31.582,2H27.253a.71.71,0,0,0-.54.255,19.03,19.03,0,0,0-6.133,0A.71.71,0,0,0,20.038,2H15.709a.722.722,0,0,0-.722.722V4.128a18.636,18.636,0,0,0-10.1,16.631V22.2H2.722A.722.722,0,0,0,2,22.924V25.81a.722.722,0,0,0,.722.722H4.886V38.075H2.722A.722.722,0,0,0,2,38.8v5.772a.722.722,0,0,0,.722.722H44.569a.722.722,0,0,0,.722-.722V38.8a.722.722,0,0,0-.722-.722H42.4V26.531h2.165a.722.722,0,0,0,.722-.722V22.924A.722.722,0,0,0,44.569,22.2ZM32.3,5.761a17.2,17.2,0,0,1,8.658,15V22.2H37.354V20.038a.722.722,0,0,0-.722-.722H32.3Zm0,15h3.608V22.2H32.3Zm-4.329-2.165V3.443H30.86V22.2H27.974ZM20.759,3.683a17.571,17.571,0,0,1,5.772,0v1.2H20.759Zm0,2.646h5.772v2.55a4.306,4.306,0,0,0-2.742-1.107,4.218,4.218,0,0,0-3.03,1.1Zm5.772,5.87a2.886,2.886,0,1,1-2.886-2.984h.1A2.89,2.89,0,0,1,26.531,12.2Zm-5.772,3.124A4.307,4.307,0,0,0,23.5,16.43h.144a4.311,4.311,0,0,0,2.886-1.111v2.554H20.759Zm0,3.993h5.772V22.2H20.759Zm-4.329.722V3.443h2.886V22.2H16.43Zm-10.1.722a17.2,17.2,0,0,1,8.658-15V19.316H10.658a.722.722,0,0,0-.722.722V22.2H6.329Zm8.658,0V22.2H11.38V20.759Zm2.886,23.088H3.443V39.518h14.43Zm7.215,0H22.2V36.632h2.886ZM27.974,38.8v5.051H26.531V35.911a.722.722,0,0,0-.722-.722H21.481a.722.722,0,0,0-.722.722v7.937H19.316v-10.1h8.658ZM28.7,32.3h-10.1a.722.722,0,0,0-.722.722v5.051H6.329V29.417H40.961v8.658H29.417V33.025A.722.722,0,0,0,28.7,32.3ZM6.329,27.974V26.531H40.961v1.443ZM43.847,39.518v4.329H29.417V39.518Zm0-14.43H3.443V23.645h40.4Z" transform="translate(-2 -2)" fill="#f1be78"/>
      <rect id="Rectangle_59" data-name="Rectangle 59" width="1" height="1" transform="translate(13 39.29)" fill="#f1be78"/>
      <rect id="Rectangle_60" data-name="Rectangle 60" width="2" height="1" transform="translate(28 39.29)" fill="#f1be78"/>
      <circle id="Ellipse_9" data-name="Ellipse 9" cx="1.5" cy="1.5" r="1.5" transform="translate(20 9.29)" fill="#f1be78"/>
      <path id="Path_641" data-name="Path 641" d="M2,4.886V6.329H3.292A2.381,2.381,0,0,1,4.781,7.983l.1.419v.812H6.329V8.4l.1-.419A2.381,2.381,0,0,1,7.923,6.329H9.215V4.886H7.923A2.381,2.381,0,0,1,6.434,3.232l-.1-.419V2H4.886v.812l-.1.419A2.381,2.381,0,0,1,3.292,4.886Zm3.608-.038a3.841,3.841,0,0,0,.7.76,3.841,3.841,0,0,0-.7.76,3.841,3.841,0,0,0-.7-.76A3.841,3.841,0,0,0,5.608,4.848Z" transform="translate(-2 -2)" fill="#f1be78"/>
      <path id="Path_642" data-name="Path 642" d="M51,4.886V6.329h1.292a2.381,2.381,0,0,1,1.489,1.654l.1.419v.812h1.443V8.4l.1-.419a2.381,2.381,0,0,1,1.489-1.654h1.292V4.886H56.923a2.381,2.381,0,0,1-1.489-1.654l-.1-.419V2H53.886v.812l-.1.419a2.381,2.381,0,0,1-1.489,1.654Zm3.608-.038a3.841,3.841,0,0,0,.7.76,3.841,3.841,0,0,0-.7.76,3.841,3.841,0,0,0-.7-.76,3.84,3.84,0,0,0,.7-.76Z" transform="translate(-15.646 -2)" fill="#f1be78"/>
    </g>
  </g>
</svg>
