<svg xmlns="http://www.w3.org/2000/svg" width="40.645" height="40.002" viewBox="0 0 40.645 40.002">
  <g id="util-4" transform="translate(-1.5 -2.006)">
    <g id="Group_137" data-name="Group 137" transform="translate(1.5 2.006)">
      <g id="Group_133" data-name="Group 133">
        <path id="Path_636" data-name="Path 636" d="M41.51,37.252H41.5V15.132a.635.635,0,0,0-.635-.635H38.239V9.733A.635.635,0,0,0,37.2,9.24l-2.882,2.336V6.592C34.29,3.208,27.55,2.006,21.789,2.006c-4.32,0-9.647.719-11.645,2.735A2.564,2.564,0,0,0,9.323,6.6v4.978L6.44,9.24A.635.635,0,0,0,5.4,9.733V14.5H2.782a.635.635,0,0,0-.635.635v22.12H2.135a.635.635,0,0,0-.635.635v3.487a.635.635,0,0,0,.635.635H41.51a.635.635,0,0,0,.635-.635V37.887A.635.635,0,0,0,41.51,37.252ZM40.228,15.767V37.252H38.239V15.767Zm-3.259-4.7V37.252H34.322V13.211ZM27.376,37.252V32.615a.635.635,0,0,0-.635-.635H16.9a.635.635,0,0,0-.635.635v4.637H14.237v-6.03a42.737,42.737,0,0,1,15.2.005v6.025Zm-1.27,0H17.54v-4h8.566v4Zm-15.512,0V33.045c0-.526.856-1.067,2.373-1.511v5.718ZM24.528,14.717v4.032a47.389,47.389,0,0,0-5.356,0V14.713A48,48,0,0,1,24.528,14.717Zm4.908.606v4a33,33,0,0,0-3.638-.483V14.807A30.031,30.031,0,0,1,29.436,15.323ZM10.593,22.443c0-.525.856-1.067,2.373-1.511v3.978a8.963,8.963,0,0,0-2.373.954Zm22.458,3.42a8.915,8.915,0,0,0-2.345-.946V20.941c1.7.509,2.341,1.088,2.345,1.5ZM29.436,24.62a33,33,0,0,0-3.638-.483v-4.03a30.028,30.028,0,0,1,3.638.516Zm-4.908-.57a47.39,47.39,0,0,0-5.356,0V20.014a48,48,0,0,1,5.356,0Zm-6.626.082a33.265,33.265,0,0,0-3.665.482v-4A30.462,30.462,0,0,1,17.9,20.1Zm-7.308,3.611c0-.525.856-1.067,2.373-1.511V30.21a8.96,8.96,0,0,0-2.373.954Zm3.644-1.824A30.461,30.461,0,0,1,17.9,25.4v4.029a33.254,33.254,0,0,0-3.665.482Zm4.935-.6a48,48,0,0,1,5.356,0v4.032a47.482,47.482,0,0,0-5.356,0V25.315Zm6.626.093a30.029,30.029,0,0,1,3.638.516v4a32.994,32.994,0,0,0-3.638-.483Zm4.908.834c1.7.509,2.341,1.088,2.345,1.5v3.424a8.915,8.915,0,0,0-2.345-.946Zm2.345-5.681a8.915,8.915,0,0,0-2.345-.946V15.64c1.7.509,2.341,1.088,2.345,1.5ZM17.9,18.831a33.265,33.265,0,0,0-3.665.482v-4A30.461,30.461,0,0,1,17.9,14.8Zm-4.935.777a8.963,8.963,0,0,0-2.373.954v-3.42c0-.525.856-1.067,2.373-1.511ZM30.706,31.544c1.7.509,2.341,1.088,2.345,1.5v4.21H30.706ZM10.593,6.592a1.334,1.334,0,0,1,.453-.957c1.4-1.41,5.715-2.359,10.742-2.359,6.3,0,11.245,1.462,11.263,3.322V12.9s0,0,0,0V15.26c-4.027-2.519-18.431-2.519-22.458,0V6.592ZM6.675,11.066l2.648,2.146v24.04H6.675V11.066Zm-3.258,4.7H5.4V37.252H3.417ZM40.875,40.738H2.77V38.522h38.1Z" transform="translate(-1.5 -2.006)" fill="#f1be78"/>
      </g>
      <g id="Group_134" data-name="Group 134" transform="translate(14.746 2.459)">
        <path id="Path_637" data-name="Path 637" d="M25.353,7.149H26.42l.22.752h0l1.019,3.548a.635.635,0,0,0,.61.46h4.566a.635.635,0,0,0,.61-.46L34.464,7.9a.635.635,0,0,0-.61-.811H27.726L27.5,6.335a.635.635,0,0,0-.609-.456H25.353a.635.635,0,0,0,0,1.27ZM33.011,8.36l-.654,2.277H28.748L28.094,8.36Z" transform="translate(-24.718 -5.878)" fill="#f1be78"/>
      </g>
      <g id="Group_135" data-name="Group 135" transform="translate(18.762 9.13)">
        <path id="Path_638" data-name="Path 638" d="M31.7,16.382h-.052a.613.613,0,0,0-.609.635.649.649,0,0,0,1.3,0A.635.635,0,0,0,31.7,16.382Z" transform="translate(-31.043 -16.382)" fill="#f1be78"/>
      </g>
      <g id="Group_136" data-name="Group 136" transform="translate(21.131 9.13)">
        <path id="Path_639" data-name="Path 639" d="M35.43,16.382h-.053a.662.662,0,1,0,.053,0Z" transform="translate(-34.773 -16.382)" fill="#f1be78"/>
      </g>
    </g>
  </g>
</svg>
