<svg xmlns="http://www.w3.org/2000/svg" width="44.134" height="44.134" viewBox="0 0 44.134 44.134">
  <g id="util-2" transform="translate(-8 -8)">
    <path id="Path_11047" data-name="Path 11047" d="M56.457,42.881a1.576,1.576,0,1,1-3.152,0,4.734,4.734,0,0,0-4.729-4.729,1.576,1.576,0,0,1,0-3.152A7.89,7.89,0,0,1,56.457,42.881Z" transform="translate(-18.509 -12.814)" fill="#f1be78"/>
    <path id="Path_11048" data-name="Path 11048" d="M65.453,8.462a1.575,1.575,0,0,0-2.229,0l-4.082,4.082A20.334,20.334,0,0,0,48.576,9.576a1.576,1.576,0,0,0,0,3.152A17.358,17.358,0,0,1,65.914,30.067a1.576,1.576,0,1,0,3.152,0A20.334,20.334,0,0,0,66.1,19.5l4.082-4.082a1.575,1.575,0,0,0,0-2.229Zm-1.2,8.432a20.652,20.652,0,0,0-2.5-2.5L64.338,11.8l2.5,2.5Z" transform="translate(-18.509)" fill="#f1be78"/>
    <path id="Path_11049" data-name="Path 11049" d="M50.558,56.1H47.405V43.491a1.576,1.576,0,0,0-1.576-1.576H44.253V37.186a14.186,14.186,0,0,0-28.372,0v4.729H14.3a1.576,1.576,0,0,0-1.576,1.576V56.1H9.576a1.576,1.576,0,0,0,0,3.152H50.558a1.576,1.576,0,0,0,0-3.152ZM19.033,37.186a11.033,11.033,0,1,1,22.067,0v4.729H19.033ZM26.914,56.1V51.372h6.3V56.1Zm9.457,0V49.8A1.576,1.576,0,0,0,34.8,48.219H25.338A1.576,1.576,0,0,0,23.762,49.8v6.3H15.881V45.067H44.253V56.1Z" transform="translate(0 -7.119)" fill="#f1be78"/>
  </g>
</svg>
