<svg xmlns="http://www.w3.org/2000/svg" width="47.858" height="50.103" viewBox="0 0 47.858 50.103">
  <g id="util-1" transform="translate(-1.392)">
    <g id="_10-observatory" data-name="10-observatory" transform="translate(1.392 0)">
      <path id="Path_643" data-name="Path 643" d="M42.012,21.92a.783.783,0,0,0,.593.759l3.131.783a.783.783,0,0,0,.964-.648A78.287,78.287,0,0,0,46.7.672a.783.783,0,0,0-.964-.648L42.605.806a.783.783,0,0,0-.593.759v.218L35.5,3.954a.783.783,0,0,0-.535.743v.171L32.428,5.5a.783.783,0,0,0-.593.759H30.586c-.1-.582-.207-1.161-.335-1.736a.783.783,0,0,0-.893-.6l-4.7.783a.783.783,0,0,0-.654.772v.078l-2.349.235V4.7h.783a.783.783,0,0,0,.7-.433l1.566-3.131A.783.783,0,0,0,24.006,0H16.177a.783.783,0,0,0-.783.783V3.914a.783.783,0,0,0,.783.783h1.566V6.185l-.861.086a.783.783,0,0,0-.7.775v.171l-2.445.611H9.117a.77.77,0,0,0-.264.053.608.608,0,0,0-.064.031.818.818,0,0,0-.092.044L6.348,9.523A.783.783,0,0,0,6,10.177v3.131a.783.783,0,0,0,.348.651L8.7,15.526a51.661,51.661,0,0,1,.164.077.775.775,0,0,0,.271.055h4.6l2.445.611v.171a.773.773,0,0,0,.343.633A3.517,3.517,0,0,0,15,19.963a3.482,3.482,0,0,0,.711,2.1,7,7,0,0,0-1.056,2.986H9.914a.783.783,0,0,0-.783.783v2.349c0,.007,0,.013,0,.021a.773.773,0,0,0,.037.226l.783,2.349a.783.783,0,0,0,.742.535h.642L8.36,49.191a.783.783,0,0,0,.772.912h3.131a.783.783,0,0,0,.772-.654l.022-.129h17.2l.022.129a.783.783,0,0,0,.772.654h3.131a.783.783,0,0,0,.772-.912l-2.98-17.877h.642a.783.783,0,0,0,.742-.535l.783-2.349a.773.773,0,0,0,.041-.226c0-.008,0-.014,0-.021V25.835a.783.783,0,0,0-.783-.783H28.657A7.051,7.051,0,0,0,21.846,18.8a3.488,3.488,0,0,0-.685-1.151l2.845.284v.074a.783.783,0,0,0,.654.772l4.7.783a.726.726,0,0,0,.128.011.783.783,0,0,0,.764-.613c.128-.575.235-1.154.335-1.736h1.249a.783.783,0,0,0,.593.759l2.538.635v.171a.783.783,0,0,0,.536.743l6.51,2.17ZM21.956,3.131H19.309V1.566h3.431Zm-5-1.566h.783V3.131H16.96ZM19.309,4.7h.783V5.95l-.783.078ZM17.743,7.75,24.2,7.1a19.142,19.142,0,0,1,0,9.269l-6.462-.638ZM7.566,10.6l.783-.521v3.337l-.783-.521Zm2.349-1.2h3.131v4.7H9.914Zm4.7,4.869V9.223l1.566-.391v5.823Zm6.263,6.154v2.4a3.111,3.111,0,0,0-.9.391l-1.948-1.461A5.446,5.446,0,0,1,20.874,20.417Zm.783,3.852a1.56,1.56,0,0,1,1.348.783h-2.7a1.56,1.56,0,0,1,1.348-.783ZM23.34,23.2a3.111,3.111,0,0,0-.9-.391V20.417a5.446,5.446,0,0,1,2.848,1.325Zm-6.585-2.418a1.932,1.932,0,0,1-.186-.821,1.952,1.952,0,0,1,3.621-1.018,7.038,7.038,0,0,0-3.434,1.839Zm.258,2.154,1.9,1.422a3.131,3.131,0,0,0-.274.69h-2.4a5.434,5.434,0,0,1,.773-2.114Zm-6.957,25.6,2.87-17.223H14.47l-2.2,13.215-.647,3.879h0l-.022.129ZM30,47.755H27.825l-.932-7.147-1.552.2.906,6.945H22.44V44.623H20.874v3.131H17.069l1.518-11.642-1.549-.2L15.49,47.755H13.318l1.6-9.59,1.141-6.85h1.577l-.294,2.248,1.552.2.319-2.45h1.661V43.058H22.44V31.315H24.1l.932,7.147,1.552-.2-.906-6.945h1.577l1.141,6.85Zm3.262.783H31.715l-.022-.128h0l-.647-3.879-2.2-13.216h1.544ZM32.053,29.749H11.262L11,28.966H32.314Zm.564-2.349H10.7v-.783h21.92Zm-7.94-2.349a3.132,3.132,0,0,0-.274-.69l1.9-1.423a5.434,5.434,0,0,1,.773,2.114Zm4.2-7.159-3.3-.55v-.024a20.715,20.715,0,0,0,0-11.151V6.143l3.3-.548a31.941,31.941,0,0,1,0,12.3Zm16.4-16.139a76.732,76.732,0,0,1,0,19.977l-1.692-.423v-.116a57.783,57.783,0,0,0,0-18.9V2.177ZM30.8,15.657a33.57,33.57,0,0,0,0-7.829h1.033v7.829Zm2.6.783V6.874l1.767-.442a25.123,25.123,0,0,1,0,10.622L33.4,16.612Zm3.131,1.644a26.682,26.682,0,0,0,0-12.682v-.14l5.637-1.879a56.188,56.188,0,0,1,0,16.719l-5.637-1.879Z" transform="translate(-2.392 0)" fill="#f1be78"/>
      <path id="Path_644" data-name="Path 644" d="M60.221,36.521l-1.152-1.212.346-1.636a.783.783,0,0,0-1.1-.868l-1.509.721-1.45-.834a.783.783,0,0,0-1.166.783l.219,1.658-1.241,1.121a.783.783,0,0,0,.383,1.35l1.644.3.682,1.527a.783.783,0,0,0,.685.463h.03a.783.783,0,0,0,.688-.41l.8-1.47,1.663-.178a.783.783,0,0,0,.484-1.318ZM57.5,36.5a.783.783,0,0,0-.6.406l-.235.438-.2-.455a.783.783,0,0,0-.573-.45l-.493-.086.37-.333a.783.783,0,0,0,.251-.684l-.065-.494.431.249a.783.783,0,0,0,.728.027l.449-.215-.1.488a.783.783,0,0,0,.2.7l.342.361Z" transform="translate(-12.577 -7.076)" fill="#f1be78"/>
      <path id="Path_645" data-name="Path 645" d="M53.81,54.085l.626-2.27a.783.783,0,0,0-1.047-.935l-2.185.882-1.963-1.3a.783.783,0,0,0-1.213.7l.164,2.349-1.844,1.469a.783.783,0,0,0,.3,1.372l2.285.571.826,2.207a.783.783,0,0,0,.654.5.671.671,0,0,0,.078,0,.783.783,0,0,0,.663-.368l1.253-2,2.354-.1a.783.783,0,0,0,.566-1.285Zm-1.886,1.648a.783.783,0,0,0-.626.367l-.626,1L50.258,56a.783.783,0,0,0-.543-.485l-1.147-.286.925-.736a.783.783,0,0,0,.294-.667l-.078-1.179.986.652a.783.783,0,0,0,.724.073l1.1-.442L52.2,54.064a.783.783,0,0,0,.157.712l.759.906Z" transform="translate(-11.089 -10.929)" fill="#f1be78"/>
      <path id="Path_646" data-name="Path 646" d="M8.506,26.7a.783.783,0,0,0-.074-.823l-.95-1.26.5-1.5a.783.783,0,0,0-1-.987l-1.487.515-1.27-.939a.783.783,0,0,0-1.248.644L3,23.931l-1.285.919a.783.783,0,0,0,.227,1.386l1.509.461.477,1.5a.783.783,0,0,0,.626.538.753.753,0,0,0,.118.009.783.783,0,0,0,.641-.334l.9-1.293,1.577.012A.783.783,0,0,0,8.506,26.7ZM5.824,25.551a.764.764,0,0,0-.647.334l-.231.33-.122-.384a.783.783,0,0,0-.517-.513L3.92,25.2l.328-.235a.783.783,0,0,0,.327-.651l-.008-.4.325.24a.783.783,0,0,0,.72.11l.381-.132-.128.382a.783.783,0,0,0,.119.719l.242.322Z" transform="translate(-1.392 -4.681)" fill="#f1be78"/>
    </g>
  </g>
</svg>
