<svg id="util-3" xmlns="http://www.w3.org/2000/svg" width="43" height="43" viewBox="0 0 43 43">
  <g id="Group_91" data-name="Group 91">
    <path id="Path_71" data-name="Path 71" d="M53.583,57.733H50.717A.717.717,0,0,1,50,57.017v-4.3A.717.717,0,0,1,50.717,52h2.867a.717.717,0,0,1,.717.717v4.3A.717.717,0,0,1,53.583,57.733ZM51.433,56.3h1.433V53.433H51.433Z" transform="translate(-14.167 -14.733)" fill="#f1be78"/>
    <path id="Path_72" data-name="Path 72" d="M35.583,57.733H32.717A.717.717,0,0,1,32,57.017v-4.3A.717.717,0,0,1,32.717,52h2.867a.717.717,0,0,1,.717.717v4.3A.717.717,0,0,1,35.583,57.733ZM33.433,56.3h1.433V53.433H33.433Z" transform="translate(-9.067 -14.733)" fill="#f1be78"/>
    <path id="Path_73" data-name="Path 73" d="M49.35,52.3H30.717A.717.717,0,0,1,30,51.583V48.717A.717.717,0,0,1,30.717,48H49.35a.717.717,0,0,1,.717.717v2.867A.717.717,0,0,1,49.35,52.3ZM31.433,50.867h17.2V49.433h-17.2Z" transform="translate(-8.5 -13.6)" fill="#f1be78"/>
    <path id="Path_74" data-name="Path 74" d="M49.35,44.3H30.717A.717.717,0,0,1,30,43.583V40.717A.717.717,0,0,1,30.717,40H49.35a.717.717,0,0,1,.717.717v2.867A.717.717,0,0,1,49.35,44.3ZM31.433,42.867h17.2V41.433h-17.2Z" transform="translate(-8.5 -11.333)" fill="#f1be78"/>
    <path id="Path_75" data-name="Path 75" d="M34.717,48.3A.717.717,0,0,1,34,47.583V44.717a.717.717,0,0,1,1.433,0v2.867A.717.717,0,0,1,34.717,48.3Z" transform="translate(-9.633 -12.467)" fill="#f1be78"/>
    <path id="Path_76" data-name="Path 76" d="M52.717,48.3A.717.717,0,0,1,52,47.583V44.717a.717.717,0,1,1,1.433,0v2.867A.717.717,0,0,1,52.717,48.3Z" transform="translate(-14.733 -12.467)" fill="#f1be78"/>
    <path id="Path_77" data-name="Path 77" d="M34.717,40.3A.717.717,0,0,1,34,39.583V36.717a.717.717,0,0,1,1.433,0v2.867A.717.717,0,0,1,34.717,40.3Z" transform="translate(-9.633 -10.2)" fill="#f1be78"/>
    <path id="Path_78" data-name="Path 78" d="M52.717,40.3A.717.717,0,0,1,52,39.583V36.717a.717.717,0,1,1,1.433,0v2.867A.717.717,0,0,1,52.717,40.3Z" transform="translate(-14.733 -10.2)" fill="#f1be78"/>
    <path id="Path_79" data-name="Path 79" d="M43.717,18.633A.717.717,0,0,1,43,17.917V.717a.717.717,0,0,1,1.433,0v17.2A.717.717,0,0,1,43.717,18.633Z" transform="translate(-12.183)" fill="#f1be78"/>
    <path id="Path_80" data-name="Path 80" d="M50.883,9.017a.717.717,0,0,1-.717-.717,2.867,2.867,0,1,0-5.733,0A.717.717,0,0,1,43,8.3a4.3,4.3,0,1,1,8.6,0A.717.717,0,0,1,50.883,9.017Z" transform="translate(-12.183 -1.133)" fill="#f1be78"/>
    <path id="Path_81" data-name="Path 81" d="M55.883,13.3H48.717A.717.717,0,0,1,48,12.583,3.587,3.587,0,0,1,51.583,9h1.433A3.587,3.587,0,0,1,56.6,12.583.717.717,0,0,1,55.883,13.3Zm-6.327-1.433h5.488a2.154,2.154,0,0,0-2.027-1.433H51.583A2.154,2.154,0,0,0,49.556,11.867Z" transform="translate(-13.6 -2.55)" fill="#f1be78"/>
    <path id="Path_82" data-name="Path 82" d="M53.15,18.017A2.153,2.153,0,0,1,51,15.867v-2.15A.717.717,0,0,1,51.717,13h2.867a.717.717,0,0,1,.717.717v2.15A2.153,2.153,0,0,1,53.15,18.017Zm-.717-3.583v1.433a.717.717,0,1,0,1.433,0V14.433Z" transform="translate(-14.45 -3.683)" fill="#f1be78"/>
    <path id="Path_83" data-name="Path 83" d="M44.583,36.9H41.717A.717.717,0,0,1,41,36.183V26.15a2.15,2.15,0,1,1,4.3,0V36.183A.717.717,0,0,1,44.583,36.9Zm-2.15-1.433h1.433V26.15a.717.717,0,0,0-1.433,0Z" transform="translate(-11.617 -6.8)" fill="#f1be78"/>
    <path id="Path_84" data-name="Path 84" d="M18.3,38.917a4.3,4.3,0,0,1-4.3-4.3V25.3a4.3,4.3,0,0,1,8.6,0v9.317A4.3,4.3,0,0,1,18.3,38.917Zm0-16.483A2.87,2.87,0,0,0,15.433,25.3v9.317a2.867,2.867,0,1,0,5.733,0V25.3A2.87,2.87,0,0,0,18.3,22.433Z" transform="translate(-3.967 -5.95)" fill="#f1be78"/>
    <path id="Path_85" data-name="Path 85" d="M19.15,36.867a.715.715,0,0,1-.507-.21L17.21,35.223a.717.717,0,0,1,1.013-1.013l1.433,1.433a.717.717,0,0,1-.507,1.223Z" transform="translate(-4.817 -9.633)" fill="#f1be78"/>
    <path id="Path_86" data-name="Path 86" d="M19.717,40.867a.717.717,0,0,1-.507-1.223l1.433-1.433a.717.717,0,0,1,1.013,1.013l-1.433,1.433A.715.715,0,0,1,19.717,40.867Z" transform="translate(-5.383 -10.767)" fill="#f1be78"/>
    <path id="Path_87" data-name="Path 87" d="M8.3,36.083a4.3,4.3,0,0,1-4.3-4.3V15.3a4.3,4.3,0,0,1,8.6,0V31.783A4.3,4.3,0,0,1,8.3,36.083Zm0-23.65A2.87,2.87,0,0,0,5.433,15.3V31.783a2.867,2.867,0,0,0,5.733,0V15.3A2.87,2.87,0,0,0,8.3,12.433Z" transform="translate(-1.133 -3.117)" fill="#f1be78"/>
    <path id="Path_88" data-name="Path 88" d="M9.717,46.517A.717.717,0,0,1,9,45.8V20.717a.717.717,0,0,1,1.433,0V45.8A.717.717,0,0,1,9.717,46.517Z" transform="translate(-2.55 -5.667)" fill="#f1be78"/>
    <path id="Path_89" data-name="Path 89" d="M9.15,36.867a.715.715,0,0,1-.507-.21L7.21,35.223A.717.717,0,0,1,8.223,34.21l1.433,1.433a.717.717,0,0,1-.507,1.223Z" transform="translate(-1.983 -9.633)" fill="#f1be78"/>
    <path id="Path_90" data-name="Path 90" d="M9.717,40.867a.717.717,0,0,1-.507-1.223l1.433-1.433a.717.717,0,0,1,1.013,1.013l-1.433,1.433A.715.715,0,0,1,9.717,40.867Z" transform="translate(-2.55 -10.767)" fill="#f1be78"/>
    <path id="Path_91" data-name="Path 91" d="M9.15,27.867a.715.715,0,0,1-.507-.21L7.21,26.223A.717.717,0,0,1,8.223,25.21l1.433,1.433a.717.717,0,0,1-.507,1.223Z" transform="translate(-1.983 -7.083)" fill="#f1be78"/>
    <path id="Path_92" data-name="Path 92" d="M9.717,31.867a.717.717,0,0,1-.507-1.223l1.433-1.433a.717.717,0,0,1,1.013,1.013l-1.433,1.433A.715.715,0,0,1,9.717,31.867Z" transform="translate(-2.55 -8.217)" fill="#f1be78"/>
    <path id="Path_93" data-name="Path 93" d="M19.717,47.507A.717.717,0,0,1,19,46.791V30.717a.717.717,0,0,1,1.433,0V46.791A.717.717,0,0,1,19.717,47.507Z" transform="translate(-5.383 -8.5)" fill="#f1be78"/>
    <path id="Path_94" data-name="Path 94" d="M21.183,57.733H9.717A.717.717,0,0,1,9,57.017C9,55.071,9.995,54,11.8,54a1.732,1.732,0,0,1,.211.013A3.738,3.738,0,0,1,15.45,52a3.738,3.738,0,0,1,3.438,2.012A1.732,1.732,0,0,1,19.1,54c1.807,0,2.8,1.071,2.8,3.017A.717.717,0,0,1,21.183,57.733ZM10.505,56.3H20.4c-.171-.7-.635-.867-1.3-.867a.722.722,0,0,0-.288.082.717.717,0,0,1-.966-.374,2.408,2.408,0,0,0-2.394-1.708,2.408,2.408,0,0,0-2.394,1.708.717.717,0,0,1-.966.374.711.711,0,0,0-.288-.082C11.14,55.433,10.675,55.6,10.505,56.3Z" transform="translate(-2.55 -14.733)" fill="#f1be78"/>
    <path id="Path_95" data-name="Path 95" d="M7.167,57.733H.717A.717.717,0,0,1,0,57.017V55.745a3.909,3.909,0,0,1,.928-2.608A3.349,3.349,0,0,1,3.583,52a3.738,3.738,0,0,1,3.438,2.012,2.95,2.95,0,0,1,1.5.231.716.716,0,0,1,0,1.319c-.175.075-.639.272-.639,1.455A.717.717,0,0,1,7.167,57.733ZM1.433,56.3H6.5a3.347,3.347,0,0,1,.187-.718.723.723,0,0,1-.307-.047.715.715,0,0,1-.4-.393,2.409,2.409,0,0,0-2.4-1.709A1.942,1.942,0,0,0,2,54.088a2.48,2.48,0,0,0-.568,1.657Z" transform="translate(0 -14.733)" fill="#f1be78"/>
    <path id="Path_96" data-name="Path 96" d="M23.033,7.883H15.867a2.866,2.866,0,1,1,.292-5.718,3.583,3.583,0,0,1,6.582,0,2.866,2.866,0,1,1,.292,5.718Zm-7.167-4.3a1.433,1.433,0,0,0,0,2.867h7.167a1.431,1.431,0,1,0-.515-2.766.717.717,0,0,1-.962-.527,2.149,2.149,0,0,0-4.213,0,.717.717,0,0,1-.962.527A1.416,1.416,0,0,0,15.867,3.583Z" transform="translate(-3.683)" fill="#f1be78"/>
    <path id="Path_97" data-name="Path 97" d="M30.867,19.017a.717.717,0,0,1-.717-.717,1.435,1.435,0,0,0-1.433-1.433.717.717,0,1,1,0-1.433,2.858,2.858,0,0,1,1.971.787A4.3,4.3,0,0,1,34.45,14a.717.717,0,0,1,0,1.433A2.87,2.87,0,0,0,31.583,18.3.717.717,0,0,1,30.867,19.017Z" transform="translate(-7.933 -3.967)" fill="#f1be78"/>
    <path id="Path_98" data-name="Path 98" d="M44.583,57.733H41.717A.717.717,0,0,1,41,57.017v-4.3A.717.717,0,0,1,41.717,52h2.867a.717.717,0,0,1,.717.717v4.3A.717.717,0,0,1,44.583,57.733ZM42.433,56.3h1.433V53.433H42.433Z" transform="translate(-11.617 -14.733)" fill="#f1be78"/>
  </g>
</svg>
