<svg xmlns="http://www.w3.org/2000/svg" width="38.912" height="36.132" viewBox="0 0 38.912 36.132">
  <g id="item-7" transform="translate(-15 -18)">
    <path id="Path_10761" data-name="Path 10761" d="M27.559,74.118H23.112A1.112,1.112,0,0,1,22,73.006V64.112A1.112,1.112,0,0,1,23.112,63h4.447a1.112,1.112,0,0,1,1.112,1.112v8.894A1.112,1.112,0,0,1,27.559,74.118Zm-3.335-2.224h2.224V65.224H24.224Z" transform="translate(-3.109 -19.985)" fill="#f1be78"/>
    <path id="Path_10762" data-name="Path 10762" d="M71.559,74.118H67.112A1.112,1.112,0,0,1,66,73.006V64.112A1.112,1.112,0,0,1,67.112,63h4.447a1.112,1.112,0,0,1,1.112,1.112v8.894A1.112,1.112,0,0,1,71.559,74.118Zm-3.335-2.224h2.224V65.224H68.224Z" transform="translate(-22.65 -19.985)" fill="#f1be78"/>
    <path id="Path_10763" data-name="Path 10763" d="M27.559,48.118H23.112A1.112,1.112,0,0,1,22,47.006V38.112A1.112,1.112,0,0,1,23.112,37h4.447a1.112,1.112,0,0,1,1.112,1.112v8.894A1.112,1.112,0,0,1,27.559,48.118Zm-3.335-2.224h2.224V39.224H24.224Z" transform="translate(-3.109 -8.438)" fill="#f1be78"/>
    <path id="Path_10764" data-name="Path 10764" d="M71.559,48.118H67.112A1.112,1.112,0,0,1,66,47.006V38.112A1.112,1.112,0,0,1,67.112,37h4.447a1.112,1.112,0,0,1,1.112,1.112v8.894A1.112,1.112,0,0,1,71.559,48.118Zm-3.335-2.224h2.224V39.224H68.224Z" transform="translate(-22.65 -8.438)" fill="#f1be78"/>
    <path id="Path_10765" data-name="Path 10765" d="M34.456,54.132H16.112A1.112,1.112,0,0,1,15,53.02V24.671a1.112,1.112,0,0,1,.556-.951l9.172-5.559a1.112,1.112,0,0,1,1.228.05l9.172,6.671a1.112,1.112,0,1,1-1.306,1.8l-8.594-6.237-8,4.853v26.61H34.456a1.112,1.112,0,1,1,0,2.224Z" transform="translate(0 0)" fill="#f1be78"/>
    <path id="Path_10766" data-name="Path 10766" d="M67.456,54.132H49.112a1.112,1.112,0,1,1,0-2.224H66.344V25.3l-8-4.853-8.572,6.237a1.112,1.112,0,1,1-1.306-1.8l9.172-6.671a1.112,1.112,0,0,1,1.228-.05l9.172,5.559a1.112,1.112,0,0,1,.534.951V53.02A1.112,1.112,0,0,1,67.456,54.132Z" transform="translate(-14.656 0)" fill="#f1be78"/>
    <path id="Path_10767" data-name="Path 10767" d="M52.688,55.224H17.112a1.112,1.112,0,0,1,0-2.224H52.688a1.112,1.112,0,1,1,0,2.224Z" transform="translate(-0.444 -15.544)" fill="#f1be78"/>
    <path id="Path_10768" data-name="Path 10768" d="M52.8,26.894a1.112,1.112,0,0,1-1.112-1.112V20.224H17.224v5.559a1.112,1.112,0,1,1-2.224,0V19.112A1.112,1.112,0,0,1,16.112,18H52.8a1.112,1.112,0,0,1,1.112,1.112v6.671A1.112,1.112,0,0,1,52.8,26.894Z" transform="translate(0 0)" fill="#f1be78"/>
    <path id="Path_10769" data-name="Path 10769" d="M49.112,58.794A1.112,1.112,0,0,1,48,57.682V32.112a1.112,1.112,0,1,1,2.224,0v25.57A1.112,1.112,0,0,1,49.112,58.794Z" transform="translate(-14.656 -5.774)" fill="#f1be78"/>
    <path id="Path_10770" data-name="Path 10770" d="M40.891,66.224H38.112a1.112,1.112,0,1,1,0-2.224h2.779a1.112,1.112,0,1,1,0,2.224Z" transform="translate(-9.771 -20.43)" fill="#f1be78"/>
    <path id="Path_10771" data-name="Path 10771" d="M57.891,66.224H55.112a1.112,1.112,0,1,1,0-2.224h2.779a1.112,1.112,0,0,1,0,2.224Z" transform="translate(-17.321 -20.43)" fill="#f1be78"/>
    <path id="Path_10772" data-name="Path 10772" d="M40.447,70.115H37.112A1.112,1.112,0,0,1,36,69V65.112A1.112,1.112,0,0,1,37.112,64h3.335a1.112,1.112,0,0,1,1.112,1.112V69A1.112,1.112,0,0,1,40.447,70.115Zm-2.224-2.224h1.112V66.224H38.224Z" transform="translate(-9.327 -20.43)" fill="#f1be78"/>
    <path id="Path_10773" data-name="Path 10773" d="M58.447,70.115H55.112A1.112,1.112,0,0,1,54,69V65.112A1.112,1.112,0,0,1,55.112,64h3.335a1.112,1.112,0,0,1,1.112,1.112V69A1.112,1.112,0,0,1,58.447,70.115Zm-2.224-2.224h1.112V66.224H56.224Z" transform="translate(-17.321 -20.43)" fill="#f1be78"/>
    <path id="Path_10774" data-name="Path 10774" d="M40.447,43.115H37.112A1.112,1.112,0,0,1,36,42V38.112A1.112,1.112,0,0,1,37.112,37h3.335a1.112,1.112,0,0,1,1.112,1.112V42A1.112,1.112,0,0,1,40.447,43.115Zm-2.224-2.224h1.112V39.224H38.224Z" transform="translate(-9.327 -8.438)" fill="#f1be78"/>
    <path id="Path_10775" data-name="Path 10775" d="M58.447,43.115H55.112A1.112,1.112,0,0,1,54,42V38.112A1.112,1.112,0,0,1,55.112,37h3.335a1.112,1.112,0,0,1,1.112,1.112V42A1.112,1.112,0,0,1,58.447,43.115Zm-2.224-2.224h1.112V39.224H56.224Z" transform="translate(-17.321 -8.438)" fill="#f1be78"/>
  </g>
</svg>
