<svg xmlns="http://www.w3.org/2000/svg" width="41.415" height="38.272" viewBox="0 0 41.415 38.272">
  <g id="item-3" transform="translate(-17.006 -35.298)">
    <g id="Group_4386" data-name="Group 4386" transform="translate(17.006 35.298)">
      <path id="Path_10743" data-name="Path 10743" d="M380.164,74.377a3.66,3.66,0,1,0-3.662-3.658A3.663,3.663,0,0,0,380.164,74.377Zm0-5.76a2.1,2.1,0,1,1-2.1,2.1A2.1,2.1,0,0,1,380.164,68.618Z" transform="translate(-345.354 -64.306)" fill="#f1be78"/>
      <path id="Path_10744" data-name="Path 10744" d="M51.621,67.373h0a17.729,17.729,0,0,0,4.269-11.534v0a17.652,17.652,0,0,0-1.1-6.166c2.061-3.351,3.633-6.184,3.633-7.771a6.607,6.607,0,0,0-12.845-2.17,17.761,17.761,0,0,0-20.5,4.11,6.6,6.6,0,0,0-8.07,6.435c0,1.556,1.506,4.3,3.5,7.563a17.592,17.592,0,0,0,4.156,9.535h0a17.744,17.744,0,0,0,6.2,4.637H23.127a.78.78,0,1,0,0,1.56H52.3a.78.78,0,1,0,0-1.56H45.421A17.745,17.745,0,0,0,51.621,67.373Zm-.956-1.287H43.874a39.62,39.62,0,0,0,1.221-9.47h9.217A16.169,16.169,0,0,1,50.665,66.086ZM38.145,72.011h0c-1.253,0-2.577-1.605-3.6-4.365h7.2C40.723,70.405,39.4,72.009,38.145,72.011Zm-4.113-5.925a37.151,37.151,0,0,1-1.28-9.47H43.535a37.142,37.142,0,0,1-1.28,9.47Zm-5.679-11.03c.37-.666.68-1.262.936-1.8l.011-.023q.059-.124.113-.243l.024-.054c.036-.079.071-.158.1-.234l.01-.024q.232-.533.381-.979v0c.025-.074.047-.146.069-.216l.007-.023q.03-.1.056-.2l.008-.032c.016-.062.031-.122.044-.181L30.127,51c.012-.056.023-.111.033-.164,0-.019.006-.037.009-.056.008-.048.016-.1.021-.141,0-.029.006-.057.009-.085s.008-.07.01-.1q.006-.093.007-.181h0s0-.008,0-.012a6.578,6.578,0,0,0-1.959-4.674h4.157a39.621,39.621,0,0,0-1.221,9.47H28.353Zm5.678-9.47h8.223a37.14,37.14,0,0,1,1.28,9.47H32.752A37.153,37.153,0,0,1,34.032,45.586Zm4.111-5.925c1.255,0,2.579,1.6,3.6,4.365h-7.2C35.564,41.265,36.889,39.661,38.143,39.661ZM49.561,50.828l.022.035.016.026.2.319c.356.57.68,1.087.952,1.535.145.239.277.458.389.653a.78.78,0,0,0,1.351,0c.3-.52.728-1.207,1.223-2a16.087,16.087,0,0,1,.6,3.659H45.095a39.615,39.615,0,0,0-1.221-9.47h2.612C47.358,47.281,48.544,49.2,49.561,50.828ZM48.248,38.334A5.046,5.046,0,0,1,56.861,41.9c0,1.526-2.723,5.88-4.351,8.482l-.107.171c-.209.334-.406.65-.588.943-.213-.345-.448-.72-.7-1.119-.209-.335-.428-.685-.652-1.045-.853-1.375-1.839-3-2.577-4.429l-.032-.062-.035-.069c-.053-.1-.1-.207-.155-.309h0a7.852,7.852,0,0,1-.889-2.435c0-.044-.007-.087-.007-.127,0-.081,0-.161.006-.241,0-.028,0-.056.006-.085,0-.051.006-.1.011-.153,0-.035.008-.07.012-.106s.01-.088.016-.132.011-.07.016-.1A5,5,0,0,1,48.248,38.334Zm-3.02,3.112c0,.046-.007.091-.009.137q-.008.158-.008.315c0,.006,0,.012,0,.018,0,.055,0,.112.007.17,0,.041.008.085.012.127,0,.02,0,.04.007.06a6.991,6.991,0,0,0,.517,1.752H43.4c-.051-.151-.1-.3-.156-.446a13.136,13.136,0,0,0-1.885-3.6,16.189,16.189,0,0,1,3.879,1.31C45.234,41.344,45.231,41.4,45.228,41.446Zm-10.3-1.462a13.139,13.139,0,0,0-1.884,3.6c-.053.146-.105.3-.156.446h-5.8A16.189,16.189,0,0,1,34.927,39.985ZM23.611,45.233a5.034,5.034,0,0,1,1.481.222l.011,0,.181.06a5,5,0,0,1,.509.21l.007,0a5.044,5.044,0,0,1,.816.495l.022.017q.083.063.164.129l.022.018q.087.072.171.148l.045.042q.054.05.106.1l.085.086.054.057c.034.037.068.073.1.111l.012.014a5.062,5.062,0,0,1,1.213,2.668c0,.032.009.063.012.1s.007.072.011.108.008.092.011.138c0,.028,0,.056.005.084,0,.076.006.153.006.23h0c0,.042,0,.086-.007.132,0,.015,0,.03,0,.046s-.007.049-.01.074a11.451,11.451,0,0,1-1.306,3.15c-.548,1.023-1.2,2.125-1.824,3.149-.4.659-.8,1.3-1.176,1.894-.257.411-.5.8-.717,1.151-.217-.351-.456-.733-.71-1.14-.313-.5-.637-1.019-.97-1.56l-.007-.011c-1.551-2.522-3.357-5.64-3.357-6.885A5.049,5.049,0,0,1,23.611,45.233ZM23.2,62.044c.018.011.037.022.057.031l.037.018c.021.009.042.017.064.024l.037.013a.749.749,0,0,0,.075.017l.03.006a.763.763,0,0,0,.109.008h0a.78.78,0,0,0,.675-.39c.324-.562.8-1.316,1.343-2.19q.314-.5.618-.992c.395-.635.8-1.3,1.206-1.974h3.74a39.626,39.626,0,0,0,1.221,9.47H25.622a16.112,16.112,0,0,1-2.436-4.05Zm9.685,5.6c.051.15.1.3.156.446a13.135,13.135,0,0,0,1.885,3.6,16.168,16.168,0,0,1-7.845-4.043Zm8.473,4.043a13.135,13.135,0,0,0,1.885-3.6c.053-.146.105-.3.156-.446h5.8A16.168,16.168,0,0,1,41.359,71.688Z" transform="translate(-17.006 -35.298)" fill="#f1be78"/>
      <path id="Path_10745" data-name="Path 10745" d="M54.652,171.04a3.66,3.66,0,1,0-3.66-3.658A3.663,3.663,0,0,0,54.652,171.04Zm0-5.76a2.1,2.1,0,1,1-2.1,2.1A2.1,2.1,0,0,1,54.652,165.281Z" transform="translate(-48.047 -152.594)" fill="#f1be78"/>
    </g>
  </g>
</svg>
