<svg xmlns="http://www.w3.org/2000/svg" width="45.254" height="38.549" viewBox="0 0 45.254 38.549">
  <g id="item-5" transform="translate(-5 -10.443)">
    <g id="Group_4394" data-name="Group 4394" transform="translate(5 10.443)">
      <g id="Group_4393" data-name="Group 4393">
        <path id="Path_10748" data-name="Path 10748" d="M5.85,46.463H49.4a.832.832,0,1,0,0-1.663H39.843V41.717h2.231a5.261,5.261,0,0,0,5.311-5.2,5.108,5.108,0,0,0-2.2-4.2,2.77,2.77,0,0,0,.187-1,3.014,3.014,0,0,0-2.178-2.836v-.854a3.878,3.878,0,0,0-7.754,0v.854a3.213,3.213,0,0,0-.337.136V17.66l-9.067-7.217-.468.194-.006,0L9.035,17.506V44.8H5.85a.832.832,0,1,0,0,1.663ZM25.041,27.857,10.735,31.109V28.089l14.306-4.365ZM10.735,32.816l14.306-3.252V33.09L10.735,35.629ZM25.041,21.982,10.735,26.348V23.19l14.306-4.73ZM10.735,37.319l14.306-2.539V38.31L10.735,39.951ZM38.143,44.8H35.1V41.65a5.326,5.326,0,0,0,.815.068h2.23ZM36.359,29.99l.775-.067V27.634a2.179,2.179,0,0,1,4.356,0v2.289l.775.067a1.43,1.43,0,0,1,1.4,1.334,1.231,1.231,0,0,1-.293.777l-.659.807.947.458a3.5,3.5,0,0,1,2.023,3.155,3.577,3.577,0,0,1-3.612,3.533H39.844V37.173l1.715-.719a.824.824,0,0,0,.447-1.092.858.858,0,0,0-1.115-.437l-1.325.556-.812-3.018a.854.854,0,0,0-1.038-.593.83.83,0,0,0-.605,1.016l1.033,3.844v3.323h-2.23A3.578,3.578,0,0,1,32.3,36.52,3.538,3.538,0,0,1,34.722,33.2l1.006-.345-.567-.882a1.2,1.2,0,0,1-.2-.65A1.431,1.431,0,0,1,36.359,29.99Zm-2.961.468a2.776,2.776,0,0,0-.141.866,2.654,2.654,0,0,0,.085.668,5.126,5.126,0,0,0,.056,9.1v3.7H26.742V13.152l6.656,5.3V30.458Zm-8.357-17.8v4.05c-.008,0-.016,0-.023,0L10.735,21.435V18.606ZM10.735,41.625l14.306-1.641V44.8H10.735Z" transform="translate(-5 -10.443)" fill="#f1be78"/>
        <path id="Path_10749" data-name="Path 10749" d="M49.4,54.459H5.85a.832.832,0,1,0,0,1.663H49.4a.832.832,0,1,0,0-1.663Z" transform="translate(-5 -17.572)" fill="#f1be78"/>
      </g>
    </g>
  </g>
</svg>
