<svg xmlns="http://www.w3.org/2000/svg" width="38.912" height="38.912" viewBox="0 0 38.912 38.912">
  <g id="item-6" transform="translate(-5 -5)">
    <path id="Path_10759" data-name="Path 10759" d="M73.647,9.324a4.324,4.324,0,1,0-4.324,4.324,3.954,3.954,0,0,0,1.773-.389l1.47,1.47h1.081v1.081h1.081V16.89h1.081v1.081h2.162V15.809L73.258,11.1A3.954,3.954,0,0,0,73.647,9.324Zm-5.4,0a1.081,1.081,0,1,1,1.081-1.081A1.07,1.07,0,0,1,68.243,9.324Z" transform="translate(-34.059)" fill="#f1be78"/>
    <path id="Path_10760" data-name="Path 10760" d="M24.456,15.16l3.675-3.675L26.618,9.972,22.294,14.3v8H20.132v2.162h2.162v2.162h2.162V24.456H38.507V41.75H24.456V30.941H22.294V33.1H13.647v2.162h8.647V41.75H7.162V35.265H9.324V33.1H7.162V24.456h8.647V22.294H7.162V7.162H22.294V9.324h2.162V5H5V43.912H40.669V22.294H24.456Z" fill="#f1be78"/>
  </g>
</svg>
