<svg xmlns="http://www.w3.org/2000/svg" width="38.549" height="45.435" viewBox="0 0 38.549 45.435">
  <g id="item-1" transform="translate(-56.402 -20.75)">
    <g id="Group_4420" data-name="Group 4420" transform="translate(56.402 20.75)">
      <g id="Group_4419" data-name="Group 4419" transform="translate(0 0)">
        <g id="Group_4418" data-name="Group 4418">
          <g id="Group_4403" data-name="Group 4403" transform="translate(9.372 6.124)">
            <path id="Path_10776" data-name="Path 10776" d="M163.5,102.617c-2.935,0-5.624-1.875-7.571-5.281a19.25,19.25,0,0,1-2.476-8.825,9.514,9.514,0,0,1,.43-2.8.966.966,0,0,1,1.384-.56,2.841,2.841,0,0,0,1.325.365H166.64A1.406,1.406,0,0,0,167.9,84.7a.966.966,0,0,1,1.286-.437L172.763,86a.965.965,0,0,1,.522.666c.03.141.058.26.083.367a5.412,5.412,0,0,1,.179,1.478,16.4,16.4,0,0,1-.5,3.8.966.966,0,1,1-1.876-.458,14.451,14.451,0,0,0,.446-3.341,3.453,3.453,0,0,0-.114-.976l-2.418-1.176a3.3,3.3,0,0,1-2.444,1.09H156.592a4.384,4.384,0,0,1-1.107-.145,7.409,7.409,0,0,0-.1,1.209c0,4.132,2.865,12.174,8.116,12.174,3.086,0,5.108-2.861,6.039-4.566a.966.966,0,0,1,1.7.925C169.273,100.638,166.526,102.617,163.5,102.617Z" transform="translate(-153.452 -84.164)" fill="#f1be78"/>
          </g>
          <g id="Group_4404" data-name="Group 4404" transform="translate(18.568 23.66)">
            <path id="Path_10777" data-name="Path 10777" d="M251.995,277.529a.965.965,0,0,1-.667-.267l-2.35-2.242a.966.966,0,0,1-.137-1.234l5.055-7.6a.966.966,0,0,1,1.573-.049l1.832,2.413a.966.966,0,0,1,.055,1.087l-4.537,7.426a.966.966,0,0,1-.7.454A.946.946,0,0,1,251.995,277.529Zm-1.1-3.347.9.856,3.569-5.842-.613-.807Z" transform="translate(-248.679 -265.758)" fill="#f1be78"/>
          </g>
          <g id="Group_4405" data-name="Group 4405" transform="translate(10.97 23.66)">
            <path id="Path_10778" data-name="Path 10778" d="M175.406,277.971a.965.965,0,0,1-.841-.491l-4.441-7.865a.966.966,0,0,1,.094-1.087l1.977-2.413a.966.966,0,0,1,1.549.074l5.108,7.607a.966.966,0,0,1-.115,1.218l-2.644,2.671A.966.966,0,0,1,175.406,277.971Zm-3.275-8.73,3.487,6.177,1.189-1.2-3.943-5.872Z" transform="translate(-170 -265.762)" fill="#f1be78"/>
          </g>
          <g id="Group_4406" data-name="Group 4406" transform="translate(0 26.073)">
            <path id="Path_10779" data-name="Path 10779" d="M93.986,310.11H74.275a.966.966,0,1,1,0-1.931H93.02v-8.294a.966.966,0,0,1,1.931,0v9.259A.966.966,0,0,1,93.986,310.11Zm-24.539,0H57.368a.966.966,0,0,1-.966-.966V295.528a.966.966,0,0,1,.649-.912l3.094-1.076a.966.966,0,0,1,.634,1.824l-2.445.85v11.964H69.446a.966.966,0,1,1,0,1.931Zm3.332-9.565a.965.965,0,0,1-.841-.491l-4.044-7.163-2.554.888a.966.966,0,1,1-.634-1.824L68.02,290.8a.965.965,0,0,1,1.158.437l3.812,6.752,2-2.02a.966.966,0,0,1,1.353-.019l1.742,1.662L82,291.21a.966.966,0,0,1,1.136-.41l10.717,3.662a.966.966,0,1,1-.624,1.828l-9.984-3.412-4.134,6.765a.966.966,0,0,1-1.491.2L75.7,298l-2.232,2.255A.966.966,0,0,1,72.778,300.544Z" transform="translate(-56.402 -290.748)" fill="#f1be78"/>
          </g>
          <g id="Group_4407" data-name="Group 4407" transform="translate(8.073)">
            <path id="Path_10780" data-name="Path 10780" d="M160.284,30.593a.964.964,0,0,1-.423-.1l-2.931-1.427a3.3,3.3,0,0,1-2.444,1.089H144.439a4.467,4.467,0,0,1-4.16-2.98.966.966,0,0,1,1.816-.657,2.5,2.5,0,0,0,2.343,1.705h10.048a1.406,1.406,0,0,0,1.262-.819.966.966,0,0,1,1.286-.436l2.281,1.11,0-1.054-3.272-2.454a1.029,1.029,0,0,1-.607-.912c-.148-.678-.4-.918-1-.98H141.694A.966.966,0,0,1,140,22.047v-.332a.966.966,0,0,1,.966-.966h13.519q.043,0,.086,0a2.864,2.864,0,0,1,2.712,2.336l3.576,2.682a.966.966,0,0,1,.386.771l0,3.083a.966.966,0,0,1-.966.967Z" transform="translate(-140 -20.75)" fill="#f1be78"/>
          </g>
          <g id="Group_4408" data-name="Group 4408" transform="translate(10.966 4.385)">
            <path id="Path_10781" data-name="Path 10781" d="M177.593,68.088h-6.667a.966.966,0,0,1,0-1.931h6.667a.966.966,0,1,1,0,1.931Z" transform="translate(-169.961 -66.157)" fill="#f1be78"/>
          </g>
          <g id="Group_4409" data-name="Group 4409" transform="translate(22.558 26.073)">
            <path id="Path_10782" data-name="Path 10782" d="M290.963,310.063a.966.966,0,0,1-.833-1.452l6.456-11.067-3.528-5.293a.966.966,0,1,1,1.607-1.071l3.863,5.794a.966.966,0,0,1,.031,1.022l-6.76,11.588A.965.965,0,0,1,290.963,310.063Z" transform="translate(-289.998 -290.749)" fill="#f1be78"/>
          </g>
          <g id="Group_4410" data-name="Group 4410" transform="translate(21.592 26.073)">
            <path id="Path_10783" data-name="Path 10783" d="M280.965,310.061a.966.966,0,0,1-.944-1.175l3.863-17.382a.966.966,0,0,1,1.885.419L281.906,309.3A.966.966,0,0,1,280.965,310.061Z" transform="translate(-279.998 -290.747)" fill="#f1be78"/>
          </g>
          <g id="Group_4411" data-name="Group 4411" transform="translate(7.107 26.073)">
            <path id="Path_10784" data-name="Path 10784" d="M137.727,310.063a.965.965,0,0,1-.835-.479L130.132,298a.966.966,0,0,1,.031-1.022l3.863-5.794a.966.966,0,0,1,1.607,1.071l-3.528,5.293,6.456,11.067a.966.966,0,0,1-.833,1.452Z" transform="translate(-130.001 -290.749)" fill="#f1be78"/>
          </g>
          <g id="Group_4412" data-name="Group 4412" transform="translate(10.97 26.073)">
            <path id="Path_10785" data-name="Path 10785" d="M174.825,310.061a.966.966,0,0,1-.942-.756l-3.863-17.382a.966.966,0,0,1,1.885-.419l3.863,17.382a.967.967,0,0,1-.944,1.175Z" transform="translate(-169.998 -290.747)" fill="#f1be78"/>
          </g>
          <g id="Group_4413" data-name="Group 4413" transform="translate(16.764 32.833)">
            <path id="Path_10786" data-name="Path 10786" d="M230.966,373.3a.966.966,0,0,1-.966-.966V361.716a.966.966,0,1,1,1.931,0v10.622A.966.966,0,0,1,230.966,373.3Z" transform="translate(-230 -360.75)" fill="#f1be78"/>
          </g>
          <g id="Group_4414" data-name="Group 4414" transform="translate(19.661 32.833)">
            <path id="Path_10787" data-name="Path 10787" d="M260.966,373.3a.966.966,0,0,1-.966-.966V361.716a.966.966,0,1,1,1.931,0v10.622A.966.966,0,0,1,260.966,373.3Z" transform="translate(-260 -360.75)" fill="#f1be78"/>
          </g>
          <g id="Group_4415" data-name="Group 4415" transform="translate(21.592 11.588)">
            <path id="Path_10788" data-name="Path 10788" d="M281.931,142.681h-.966a.966.966,0,1,1,0-1.931h.966a.966.966,0,1,1,0,1.931Z" transform="translate(-280 -140.75)" fill="#f1be78"/>
          </g>
          <g id="Group_4416" data-name="Group 4416" transform="translate(13.867 11.588)">
            <path id="Path_10789" data-name="Path 10789" d="M201.931,142.681h-.966a.966.966,0,0,1,0-1.931h.966a.966.966,0,1,1,0,1.931Z" transform="translate(-200 -140.75)" fill="#f1be78"/>
          </g>
          <g id="Group_4417" data-name="Group 4417" transform="translate(17.73 12.554)">
            <path id="Path_10790" data-name="Path 10790" d="M241.931,157.51h-.966a.966.966,0,0,1-.966-.966v-4.828a.966.966,0,0,1,1.931,0v3.863a.966.966,0,1,1,0,1.931Z" transform="translate(-240 -150.75)" fill="#f1be78"/>
          </g>
        </g>
      </g>
    </g>
  </g>
</svg>
