<svg xmlns="http://www.w3.org/2000/svg" width="38.549" height="38.549" viewBox="0 0 38.549 38.549">
  <g id="item-2" transform="translate(-1 -1)">
    <g id="Group_4395" data-name="Group 4395" transform="translate(1 1)">
      <path id="Path_10750" data-name="Path 10750" d="M38.306,10.948V8.461H28.358V3.487H27.114V1H13.435V3.487H12.192V8.461H2.244v2.487H1V36.441a3.112,3.112,0,0,0,3.109,3.109H36.441a3.112,3.112,0,0,0,3.109-3.109V10.948Zm0,17.409H37.062V29.6h1.244V33.95a3,3,0,0,0-2.269-.589,4.355,4.355,0,0,0-7.9,0,2.788,2.788,0,0,0-.4-.03,3.106,3.106,0,0,0-.622.063V29.6h1.244V28.358H27.114V27.114H38.306ZM25.265,38.306H23.384V30.845h1.244V29.6h-8.7v1.244h1.244v7.461H15.284a3.077,3.077,0,0,0,.638-1.865,3.131,3.131,0,0,0-1.244-2.49V9.7H25.871V33.97a3.064,3.064,0,0,0-.606,4.336ZM22.14,30.845v7.461H18.409V30.845Zm-19.9-2.487V27.114H13.435v1.244H12.192V29.6h1.244v3.785a3.024,3.024,0,0,0-1.026-.024,4.355,4.355,0,0,0-7.9,0,3,3,0,0,0-2.269.588V29.6H3.487V28.358Zm0-8.7V18.409H13.435v1.244H12.192V20.9h1.244v4.974H12.192V22.14H8.461v3.731H7.218V22.14H3.487v3.731H2.244V20.9H3.487V19.653Zm3.731-2.487H4.731V14.679H5.974Zm4.974,0H9.7V14.679h1.244Zm0,8.7H9.7V23.384h1.244Zm-4.974,0H4.731V23.384H5.974ZM18.409,8.461H15.922V7.218h2.487Zm19.9,3.731v4.974H37.062V13.435H33.332v3.731H32.088V13.435H28.358v3.731H27.114V12.192Zm-2.487,4.974H34.575V14.679h1.244Zm-4.974,0H29.6V14.679h1.244Zm-6.218-8.7H22.14V7.218h2.487Zm6.218,17.409H29.6V23.384h1.244Zm4.974,0H34.575V23.384h1.244Zm2.487-6.218H37.062V20.9h1.244v4.974H37.062V22.14H33.332v3.731H32.088V22.14H28.358v3.731H27.114V20.9h1.244V19.653H27.114V18.409H38.306ZM28.358,9.7h8.7v1.244H27.114V9.7h1.244ZM14.679,2.244H25.871V3.487H14.679ZM13.435,4.731H27.114V8.461H25.871V5.974H20.9V8.461H19.653V5.974H14.679V8.461H13.435ZM3.487,9.7h9.948v1.244H3.487Zm9.948,2.487v4.974H12.192V13.435H8.461v3.731H7.218V13.435H3.487v3.731H2.244V12.192ZM4.109,38.306a1.865,1.865,0,0,1,0-3.731,1.842,1.842,0,0,1,.59.107l.6.2.188-.609a3.11,3.11,0,0,1,5.94,0l.188.609.6-.2a1.827,1.827,0,0,1,.59-.108,1.865,1.865,0,1,1,0,3.731Zm32.332,0h-8.7a1.865,1.865,0,0,1,0-3.731,1.842,1.842,0,0,1,.59.107l.6.2.188-.609a3.11,3.11,0,0,1,5.94,0l.188.609.6-.2a1.827,1.827,0,0,1,.59-.108,1.865,1.865,0,0,1,0,3.731Z" transform="translate(-1 -1)" fill="#f1be78"/>
      <rect id="Rectangle_2310" data-name="Rectangle 2310" width="6" height="1" transform="translate(29 27.549)" fill="#f1be78"/>
      <rect id="Rectangle_2311" data-name="Rectangle 2311" width="6" height="1" transform="translate(4 27.549)" fill="#f1be78"/>
      <rect id="Rectangle_2312" data-name="Rectangle 2312" width="6" height="2" transform="translate(29 18.549)" fill="#f1be78"/>
      <rect id="Rectangle_2313" data-name="Rectangle 2313" width="6" height="2" transform="translate(4 18.549)" fill="#f1be78"/>
      <path id="Path_10751" data-name="Path 10751" d="M25,33.166h8.7V17H25Zm1.244-3.731h2.487v2.487H26.244Zm3.731-4.974V21.974h2.487v2.487ZM32.461,25.7v2.487H29.974V25.7Zm-3.731-1.244H26.244V21.974h2.487Zm0,1.244v2.487H26.244V25.7Zm1.244,6.218V29.435h2.487v2.487Zm2.487-11.192H29.974V18.244h2.487Zm-3.731-2.487v2.487H26.244V18.244Z" transform="translate(-10.078 -7.052)" fill="#f1be78"/>
    </g>
  </g>
</svg>
