<svg xmlns="http://www.w3.org/2000/svg" xmlns:xlink="http://www.w3.org/1999/xlink" width="1254" height="705" viewBox="0 0 1254 705">
  <defs>
    <pattern id="pattern" preserveAspectRatio="xMidYMid slice" width="100%" height="100%" viewBox="0 0 1367 768">
      <image width="1367" height="768" xlink:href="./assets/img/utilities-detail/util-2-image.png"/>
    </pattern>
    <pattern id="pattern-2" preserveAspectRatio="xMidYMid slice" width="100%" height="100%" viewBox="0 0 977 556">
      <image width="977" height="556" xlink:href="./assets/img/utilities-detail/util-2-image2.png"/>
    </pattern>
    <pattern id="pattern-3" width="1" height="1" viewBox="5.617 31.33 844.765 426.33">
      <image preserveAspectRatio="xMidYMid slice" width="856" height="488.99" xlink:href="./assets/img/utilities-detail/util-2-image3.png"/>
    </pattern>
    <linearGradient id="linear-gradient" x1="0.5" x2="0.5" y2="1" gradientUnits="objectBoundingBox">
      <stop offset="0.166" stop-color="#f1be78"/>
      <stop offset="0.999" stop-color="#795932"/>
    </linearGradient>
  </defs>
  <g id="util-2" transform="translate(-349 -25)">
    <rect id="TIỆN_ÍCH_TẦNG_1-background" data-name="TIỆN ÍCH TẦNG 1-background" width="1254" height="705" transform="translate(349 25)" opacity="0.55" fill="url(#pattern)"/>
    <rect id="cv" width="975" height="556" transform="translate(482 106)" fill="url(#pattern-2)"/>
    <path id="Path_10920" data-name="Path 10920" d="M3458.595,5103.617a35.961,35.961,0,0,0-14.146-30.228c-15.935-12.121-21.625-10.25-21.625-10.25s1.957-5.344-8.125-13-49.71-19.3-73.125-13.875-46.809,2.552-70.875,0-80.547-6.328-124.125-2.5-59.478,8.721-93.625,7.125-46.011-12.016-68.125-14.25-85.636-7.964-135.393,13.089-117.526,14.78-136.714,14.143-57.557-.221-58.857,36.143-19.021,40.4-15.769,77.719-9.106,30.941-32.846,29.666-46.18-11.164-90.408-6.379-32.521,33.493-29.919,35.726,4.179,5.587,9.057,5.269,13,68,13,68-28.151,33.443-26.2,59.6,14,76.4,14,76.4,5.515,43.888,20.8,59.2,24.8,22,24.8,22,5.883,22.331,6.534,34.133,5.715,31.3,21,30.667,26.333-16.463,52.333-11.4,31.509,9.25,61.753,4.466,17.035-6.229,48.58-2.4,48.8,14.193,94.333,3.667,60.584-14.67,110.667-7.333,78.251-6.083,101.667-15.333,16.341-6.77,43.333-1.667,44.463-3.445,63-13.333,42.723-12.753,71.667-14.667,214.083-23,214.083-23a50.758,50.758,0,0,0,22.75-17.75,43.288,43.288,0,0,0,7.3-27.867V5268.932Z" transform="translate(-2002.574 -4918.014)" fill="#08152e" opacity="0.6"/>
        <g id="Group_4523" data-name="Group 4523" transform="translate(-4047 -4199)">
        <path id="Path_10922" data-name="Path 10922" d="M5044.9,4372.7v107.347l-33.566,33.48h-127.41v-56.855h-3.478v-55.229h-95.718v82.971h-4.3v6.357h4.945v25.944h-4.945v10.789h-1.542v91.7H4635.954v162.666h-4.517v5.94h76.212v-17.194h389.31v-93.679h4.463l-.161-31.018,33.3-33.458H5308.99l16.715,16.826v2.89h-8.027v35.994h8.027V4682.5h4.624V4734.8h102.236V4367.473h-10.339v-1.284H5257.7v1.268h-10.692v4.736Z" transform="translate(0.727 0.142)" fill="#fff"/>
        <rect id="MB_T3" width="856" height="432" transform="translate(4605 4361)" fill="url(#pattern-3)"/>
        <path id="Path_10921" data-name="Path 10921" d="M5422.127,4372.526H5034.6" transform="translate(11.813 0.317)" fill="none" stroke="#707070" stroke-width="1"/>
      </g>
        <g id="Group_4553" data-name="Group 4553" transform="translate(-139 -149)">
          <circle id="Ellipse_63" data-name="Ellipse 63" cx="17" cy="17" r="17" transform="translate(922 385)" fill="#caa262" opacity="0.48"/>
          <g id="Group_4517" data-name="Group 4517" transform="translate(926.435 388.696)">
            <circle id="Ellipse_60" data-name="Ellipse 60" cx="13" cy="13" r="13" transform="translate(-0.435 0.304)" fill="url(#linear-gradient)"/>
            <g id="Ellipse_61" data-name="Ellipse 61" transform="translate(-0.435 0.304)" fill="none" stroke="#fff" stroke-width="1" stroke-dasharray="3">
              <circle cx="13" cy="13" r="13" stroke="none"/>
              <circle cx="13" cy="13" r="12.5" fill="none"/>
            </g>
            <text id="_22" data-name="22" transform="translate(18.565 16.304)" fill="#fff" font-size="10" font-family="Avenir-Black, Avenir" font-weight="800"><tspan x="-11.84" y="0">22</tspan></text>
          </g>
        </g>
        <g id="Group_4554" data-name="Group 4554" transform="translate(-179 -106)">
          <circle id="Ellipse_63-2" data-name="Ellipse 63" cx="17" cy="17" r="17" transform="translate(922 385)" fill="#caa262" opacity="0.48"/>
          <g id="Group_4517-2" data-name="Group 4517" transform="translate(926.435 388.696)">
            <circle id="Ellipse_60-2" data-name="Ellipse 60" cx="13" cy="13" r="13" transform="translate(-0.435 0.304)" fill="url(#linear-gradient)"/>
            <g id="Ellipse_61-2" data-name="Ellipse 61" transform="translate(-0.435 0.304)" fill="none" stroke="#fff" stroke-width="1" stroke-dasharray="3">
              <circle cx="13" cy="13" r="13" stroke="none"/>
              <circle cx="13" cy="13" r="12.5" fill="none"/>
            </g>
            <text id="_38" data-name="38" transform="translate(18.565 16.304)" fill="#fff" font-size="10" font-family="Avenir-Black, Avenir" font-weight="800"><tspan x="-11.84" y="0">38</tspan></text>
          </g>
        </g>
        <g id="Group_4555" data-name="Group 4555" transform="translate(-179 -30)">
          <circle id="Ellipse_63-3" data-name="Ellipse 63" cx="17" cy="17" r="17" transform="translate(922 385)" fill="#caa262" opacity="0.48"/>
          <g id="Group_4517-3" data-name="Group 4517" transform="translate(926.435 388.696)">
            <circle id="Ellipse_60-3" data-name="Ellipse 60" cx="13" cy="13" r="13" transform="translate(-0.435 0.304)" fill="url(#linear-gradient)"/>
            <g id="Ellipse_61-3" data-name="Ellipse 61" transform="translate(-0.435 0.304)" fill="none" stroke="#fff" stroke-width="1" stroke-dasharray="3">
              <circle cx="13" cy="13" r="13" stroke="none"/>
              <circle cx="13" cy="13" r="12.5" fill="none"/>
            </g>
            <text id="_37" data-name="37" transform="translate(18.565 16.304)" fill="#fff" font-size="10" font-family="Avenir-Black, Avenir" font-weight="800"><tspan x="-11.84" y="0">37</tspan></text>
          </g>
        </g>
        <g id="Group_4556" data-name="Group 4556" transform="translate(-64 -38)">
          <circle id="Ellipse_63-4" data-name="Ellipse 63" cx="17" cy="17" r="17" transform="translate(922 385)" fill="#caa262" opacity="0.48"/>
          <g id="Group_4517-4" data-name="Group 4517" transform="translate(926.435 388.696)">
            <circle id="Ellipse_60-4" data-name="Ellipse 60" cx="13" cy="13" r="13" transform="translate(-0.435 0.304)" fill="url(#linear-gradient)"/>
            <g id="Ellipse_61-4" data-name="Ellipse 61" transform="translate(-0.435 0.304)" fill="none" stroke="#fff" stroke-width="1" stroke-dasharray="3">
              <circle cx="13" cy="13" r="13" stroke="none"/>
              <circle cx="13" cy="13" r="12.5" fill="none"/>
            </g>
            <text id="_23" data-name="23" transform="translate(18.565 16.304)" fill="#fff" font-size="10" font-family="Avenir-Black, Avenir" font-weight="800"><tspan x="-11.84" y="0">23</tspan></text>
          </g>
        </g>
        <g id="Group_4557" data-name="Group 4557" transform="translate(-47 1)">
          <circle id="Ellipse_63-5" data-name="Ellipse 63" cx="17" cy="17" r="17" transform="translate(922 385)" fill="#caa262" opacity="0.48"/>
          <g id="Group_4517-5" data-name="Group 4517" transform="translate(926.435 388.696)">
            <circle id="Ellipse_60-5" data-name="Ellipse 60" cx="13" cy="13" r="13" transform="translate(-0.435 0.304)" fill="url(#linear-gradient)"/>
            <g id="Ellipse_61-5" data-name="Ellipse 61" transform="translate(-0.435 0.304)" fill="none" stroke="#fff" stroke-width="1" stroke-dasharray="3">
              <circle cx="13" cy="13" r="13" stroke="none"/>
              <circle cx="13" cy="13" r="12.5" fill="none"/>
            </g>
            <text id="_24" data-name="24" transform="translate(18.565 16.304)" fill="#fff" font-size="10" font-family="Avenir-Black, Avenir" font-weight="800"><tspan x="-11.84" y="0">24</tspan></text>
          </g>
        </g>
        <g id="Group_4558" data-name="Group 4558" transform="translate(-105 -3)">
          <circle id="Ellipse_63-6" data-name="Ellipse 63" cx="17" cy="17" r="17" transform="translate(922 385)" fill="#caa262" opacity="0.48"/>
          <g id="Group_4517-6" data-name="Group 4517" transform="translate(926.435 388.696)">
            <circle id="Ellipse_60-6" data-name="Ellipse 60" cx="13" cy="13" r="13" transform="translate(-0.435 0.304)" fill="url(#linear-gradient)"/>
            <g id="Ellipse_61-6" data-name="Ellipse 61" transform="translate(-0.435 0.304)" fill="none" stroke="#fff" stroke-width="1" stroke-dasharray="3">
              <circle cx="13" cy="13" r="13" stroke="none"/>
              <circle cx="13" cy="13" r="12.5" fill="none"/>
            </g>
            <text id="_41" data-name="41" transform="translate(18.565 16.304)" fill="#fff" font-size="10" font-family="Avenir-Black, Avenir" font-weight="800"><tspan x="-11.84" y="0">41</tspan></text>
          </g>
        </g>
        <g id="Group_4559" data-name="Group 4559" transform="translate(34 -4)">
          <circle id="Ellipse_63-7" data-name="Ellipse 63" cx="17" cy="17" r="17" transform="translate(922 385)" fill="#caa262" opacity="0.48"/>
          <g id="Group_4517-7" data-name="Group 4517" transform="translate(926.435 388.696)">
            <circle id="Ellipse_60-7" data-name="Ellipse 60" cx="13" cy="13" r="13" transform="translate(-0.435 0.304)" fill="url(#linear-gradient)"/>
            <g id="Ellipse_61-7" data-name="Ellipse 61" transform="translate(-0.435 0.304)" fill="none" stroke="#fff" stroke-width="1" stroke-dasharray="3">
              <circle cx="13" cy="13" r="13" stroke="none"/>
              <circle cx="13" cy="13" r="12.5" fill="none"/>
            </g>
            <text id="_26" data-name="26" transform="translate(18.565 16.304)" fill="#fff" font-size="10" font-family="Avenir-Black, Avenir" font-weight="800"><tspan x="-11.84" y="0">26</tspan></text>
          </g>
        </g>
        <g id="Group_4560" data-name="Group 4560" transform="translate(47 -59)">
          <circle id="Ellipse_63-8" data-name="Ellipse 63" cx="17" cy="17" r="17" transform="translate(922 385)" fill="#caa262" opacity="0.48"/>
          <g id="Group_4517-8" data-name="Group 4517" transform="translate(926.435 388.696)">
            <circle id="Ellipse_60-8" data-name="Ellipse 60" cx="13" cy="13" r="13" transform="translate(-0.435 0.304)" fill="url(#linear-gradient)"/>
            <g id="Ellipse_61-8" data-name="Ellipse 61" transform="translate(-0.435 0.304)" fill="none" stroke="#fff" stroke-width="1" stroke-dasharray="3">
              <circle cx="13" cy="13" r="13" stroke="none"/>
              <circle cx="13" cy="13" r="12.5" fill="none"/>
            </g>
            <text id="_41-2" data-name="41" transform="translate(18.565 16.304)" fill="#fff" font-size="10" font-family="Avenir-Black, Avenir" font-weight="800"><tspan x="-11.84" y="0">41</tspan></text>
          </g>
        </g>
        <g id="Group_4562" data-name="Group 4562" transform="translate(131 -72)">
          <circle id="Ellipse_63-9" data-name="Ellipse 63" cx="17" cy="17" r="17" transform="translate(922 385)" fill="#caa262" opacity="0.48"/>
          <g id="Group_4517-9" data-name="Group 4517" transform="translate(926.435 388.696)">
            <circle id="Ellipse_60-9" data-name="Ellipse 60" cx="13" cy="13" r="13" transform="translate(-0.435 0.304)" fill="url(#linear-gradient)"/>
            <g id="Ellipse_61-9" data-name="Ellipse 61" transform="translate(-0.435 0.304)" fill="none" stroke="#fff" stroke-width="1" stroke-dasharray="3">
              <circle cx="13" cy="13" r="13" stroke="none"/>
              <circle cx="13" cy="13" r="12.5" fill="none"/>
            </g>
            <text id="_23-2" data-name="23" transform="translate(18.565 16.304)" fill="#fff" font-size="10" font-family="Avenir-Black, Avenir" font-weight="800"><tspan x="-11.84" y="0">23</tspan></text>
          </g>
        </g>
        <g id="Group_4565" data-name="Group 4565" transform="translate(234 -55)">
          <circle id="Ellipse_63-10" data-name="Ellipse 63" cx="17" cy="17" r="17" transform="translate(922 385)" fill="#caa262" opacity="0.48"/>
          <g id="Group_4517-10" data-name="Group 4517" transform="translate(926.435 388.696)">
            <circle id="Ellipse_60-10" data-name="Ellipse 60" cx="13" cy="13" r="13" transform="translate(-0.435 0.304)" fill="url(#linear-gradient)"/>
            <g id="Ellipse_61-10" data-name="Ellipse 61" transform="translate(-0.435 0.304)" fill="none" stroke="#fff" stroke-width="1" stroke-dasharray="3">
              <circle cx="13" cy="13" r="13" stroke="none"/>
              <circle cx="13" cy="13" r="12.5" fill="none"/>
            </g>
            <text id="_42" data-name="42" transform="translate(18.565 16.304)" fill="#fff" font-size="10" font-family="Avenir-Black, Avenir" font-weight="800"><tspan x="-11.84" y="0">42</tspan></text>
          </g>
        </g>
        <g id="Group_4566" data-name="Group 4566" transform="translate(204 -4)">
          <circle id="Ellipse_63-11" data-name="Ellipse 63" cx="17" cy="17" r="17" transform="translate(922 385)" fill="#caa262" opacity="0.48"/>
          <g id="Group_4517-11" data-name="Group 4517" transform="translate(926.435 388.696)">
            <circle id="Ellipse_60-11" data-name="Ellipse 60" cx="13" cy="13" r="13" transform="translate(-0.435 0.304)" fill="url(#linear-gradient)"/>
            <g id="Ellipse_61-11" data-name="Ellipse 61" transform="translate(-0.435 0.304)" fill="none" stroke="#fff" stroke-width="1" stroke-dasharray="3">
              <circle cx="13" cy="13" r="13" stroke="none"/>
              <circle cx="13" cy="13" r="12.5" fill="none"/>
            </g>
            <text id="_27" data-name="27" transform="translate(18.565 16.304)" fill="#fff" font-size="10" font-family="Avenir-Black, Avenir" font-weight="800"><tspan x="-11.84" y="0">27</tspan></text>
          </g>
        </g>
        <g id="Group_4680" data-name="Group 4680" transform="translate(351 -4)">
          <circle id="Ellipse_63-12" data-name="Ellipse 63" cx="17" cy="17" r="17" transform="translate(922 385)" fill="#caa262" opacity="0.48"/>
          <g id="Group_4517-12" data-name="Group 4517" transform="translate(926.435 388.696)">
            <circle id="Ellipse_60-12" data-name="Ellipse 60" cx="13" cy="13" r="13" transform="translate(-0.435 0.304)" fill="url(#linear-gradient)"/>
            <g id="Ellipse_61-12" data-name="Ellipse 61" transform="translate(-0.435 0.304)" fill="none" stroke="#fff" stroke-width="1" stroke-dasharray="3">
              <circle cx="13" cy="13" r="13" stroke="none"/>
              <circle cx="13" cy="13" r="12.5" fill="none"/>
            </g>
            <text id="_29" data-name="29" transform="translate(18.565 16.304)" fill="#fff" font-size="10" font-family="Avenir-Black, Avenir" font-weight="800"><tspan x="-11.84" y="0">29</tspan></text>
          </g>
        </g>
        <g id="Group_4563" data-name="Group 4563" transform="translate(217 -123)">
          <circle id="Ellipse_63-13" data-name="Ellipse 63" cx="17" cy="17" r="17" transform="translate(922 385)" fill="#caa262" opacity="0.48"/>
          <g id="Group_4517-13" data-name="Group 4517" transform="translate(926.435 388.696)">
            <circle id="Ellipse_60-13" data-name="Ellipse 60" cx="13" cy="13" r="13" transform="translate(-0.435 0.304)" fill="url(#linear-gradient)"/>
            <g id="Ellipse_61-13" data-name="Ellipse 61" transform="translate(-0.435 0.304)" fill="none" stroke="#fff" stroke-width="1" stroke-dasharray="3">
              <circle cx="13" cy="13" r="13" stroke="none"/>
              <circle cx="13" cy="13" r="12.5" fill="none"/>
            </g>
            <text id="_36" data-name="36" transform="translate(18.565 16.304)" fill="#fff" font-size="10" font-family="Avenir-Black, Avenir" font-weight="800"><tspan x="-11.84" y="0">36</tspan></text>
          </g>
        </g>
        <g id="Group_4564" data-name="Group 4564" transform="translate(170 -183)">
          <circle id="Ellipse_63-14" data-name="Ellipse 63" cx="17" cy="17" r="17" transform="translate(922 385)" fill="#caa262" opacity="0.48"/>
          <g id="Group_4517-14" data-name="Group 4517" transform="translate(926.435 388.696)">
            <circle id="Ellipse_60-14" data-name="Ellipse 60" cx="13" cy="13" r="13" transform="translate(-0.435 0.304)" fill="url(#linear-gradient)"/>
            <g id="Ellipse_61-14" data-name="Ellipse 61" transform="translate(-0.435 0.304)" fill="none" stroke="#fff" stroke-width="1" stroke-dasharray="3">
              <circle cx="13" cy="13" r="13" stroke="none"/>
              <circle cx="13" cy="13" r="12.5" fill="none"/>
            </g>
            <text id="_35" data-name="35" transform="translate(18.565 16.304)" fill="#fff" font-size="10" font-family="Avenir-Black, Avenir" font-weight="800"><tspan x="-11.84" y="0">35</tspan></text>
          </g>
        </g>
        <g id="Group_4567" data-name="Group 4567" transform="translate(337 -183)">
          <circle id="Ellipse_63-15" data-name="Ellipse 63" cx="17" cy="17" r="17" transform="translate(922 385)" fill="#caa262" opacity="0.48"/>
          <g id="Group_4517-15" data-name="Group 4517" transform="translate(926.435 388.696)">
            <circle id="Ellipse_60-15" data-name="Ellipse 60" cx="13" cy="13" r="13" transform="translate(-0.435 0.304)" fill="url(#linear-gradient)"/>
            <g id="Ellipse_61-15" data-name="Ellipse 61" transform="translate(-0.435 0.304)" fill="none" stroke="#fff" stroke-width="1" stroke-dasharray="3">
              <circle cx="13" cy="13" r="13" stroke="none"/>
              <circle cx="13" cy="13" r="12.5" fill="none"/>
            </g>
            <text id="_34" data-name="34" transform="translate(18.565 16.304)" fill="#fff" font-size="10" font-family="Avenir-Black, Avenir" font-weight="800"><tspan x="-11.84" y="0">34</tspan></text>
          </g>
        </g>
        <g id="Group_4568" data-name="Group 4568" transform="translate(421 -149)">
          <circle id="Ellipse_63-16" data-name="Ellipse 63" cx="17" cy="17" r="17" transform="translate(922 385)" fill="#caa262" opacity="0.48"/>
          <g id="Group_4517-16" data-name="Group 4517" transform="translate(926.435 388.696)">
            <circle id="Ellipse_60-16" data-name="Ellipse 60" cx="13" cy="13" r="13" transform="translate(-0.435 0.304)" fill="url(#linear-gradient)"/>
            <g id="Ellipse_61-16" data-name="Ellipse 61" transform="translate(-0.435 0.304)" fill="none" stroke="#fff" stroke-width="1" stroke-dasharray="3">
              <circle cx="13" cy="13" r="13" stroke="none"/>
              <circle cx="13" cy="13" r="12.5" fill="none"/>
            </g>
            <text id="_33" data-name="33" transform="translate(18.565 16.304)" fill="#fff" font-size="10" font-family="Avenir-Black, Avenir" font-weight="800"><tspan x="-11.84" y="0">33</tspan></text>
          </g>
        </g>
        <g id="Group_4570" data-name="Group 4570" transform="translate(421 -13)">
          <circle id="Ellipse_63-17" data-name="Ellipse 63" cx="17" cy="17" r="17" transform="translate(922 385)" fill="#caa262" opacity="0.48"/>
          <g id="Group_4517-17" data-name="Group 4517" transform="translate(926.435 388.696)">
            <circle id="Ellipse_60-17" data-name="Ellipse 60" cx="13" cy="13" r="13" transform="translate(-0.435 0.304)" fill="url(#linear-gradient)"/>
            <g id="Ellipse_61-17" data-name="Ellipse 61" transform="translate(-0.435 0.304)" fill="none" stroke="#fff" stroke-width="1" stroke-dasharray="3">
              <circle cx="13" cy="13" r="13" stroke="none"/>
              <circle cx="13" cy="13" r="12.5" fill="none"/>
            </g>
            <text id="_32" data-name="32" transform="translate(18.565 16.304)" fill="#fff" font-size="10" font-family="Avenir-Black, Avenir" font-weight="800"><tspan x="-11.84" y="0">32</tspan></text>
          </g>
        </g>
        <g id="Group_4571" data-name="Group 4571" transform="translate(421 31)">
          <circle id="Ellipse_63-18" data-name="Ellipse 63" cx="17" cy="17" r="17" transform="translate(922 385)" fill="#caa262" opacity="0.48"/>
          <g id="Group_4517-18" data-name="Group 4517" transform="translate(926.435 388.696)">
            <circle id="Ellipse_60-18" data-name="Ellipse 60" cx="13" cy="13" r="13" transform="translate(-0.435 0.304)" fill="url(#linear-gradient)"/>
            <g id="Ellipse_61-18" data-name="Ellipse 61" transform="translate(-0.435 0.304)" fill="none" stroke="#fff" stroke-width="1" stroke-dasharray="3">
              <circle cx="13" cy="13" r="13" stroke="none"/>
              <circle cx="13" cy="13" r="12.5" fill="none"/>
            </g>
            <text id="_32-2" data-name="32" transform="translate(18.565 16.304)" fill="#fff" font-size="10" font-family="Avenir-Black, Avenir" font-weight="800"><tspan x="-11.84" y="0">32</tspan></text>
          </g>
        </g>
        <g id="Group_4572" data-name="Group 4572" transform="translate(421 102)">
          <circle id="Ellipse_63-19" data-name="Ellipse 63" cx="17" cy="17" r="17" transform="translate(922 385)" fill="#caa262" opacity="0.48"/>
          <g id="Group_4517-19" data-name="Group 4517" transform="translate(926.435 388.696)">
            <circle id="Ellipse_60-19" data-name="Ellipse 60" cx="13" cy="13" r="13" transform="translate(-0.435 0.304)" fill="url(#linear-gradient)"/>
            <g id="Ellipse_61-19" data-name="Ellipse 61" transform="translate(-0.435 0.304)" fill="none" stroke="#fff" stroke-width="1" stroke-dasharray="3">
              <circle cx="13" cy="13" r="13" stroke="none"/>
              <circle cx="13" cy="13" r="12.5" fill="none"/>
            </g>
            <text id="_31" data-name="31" transform="translate(18.565 16.304)" fill="#fff" font-size="10" font-family="Avenir-Black, Avenir" font-weight="800"><tspan x="-11.84" y="0">31</tspan></text>
          </g>
        </g>
        <g id="Group_4573" data-name="Group 4573" transform="translate(354 124)">
          <circle id="Ellipse_63-20" data-name="Ellipse 63" cx="17" cy="17" r="17" transform="translate(922 385)" fill="#caa262" opacity="0.48"/>
          <g id="Group_4517-20" data-name="Group 4517" transform="translate(926.435 388.696)">
            <circle id="Ellipse_60-20" data-name="Ellipse 60" cx="13" cy="13" r="13" transform="translate(-0.435 0.304)" fill="url(#linear-gradient)"/>
            <g id="Ellipse_61-20" data-name="Ellipse 61" transform="translate(-0.435 0.304)" fill="none" stroke="#fff" stroke-width="1" stroke-dasharray="3">
              <circle cx="13" cy="13" r="13" stroke="none"/>
              <circle cx="13" cy="13" r="12.5" fill="none"/>
            </g>
            <text id="_30" data-name="30" transform="translate(18.565 16.304)" fill="#fff" font-size="10" font-family="Avenir-Black, Avenir" font-weight="800"><tspan x="-11.84" y="0">30</tspan></text>
          </g>
        </g>
        <g id="Group_4574" data-name="Group 4574" transform="translate(102 51)">
          <circle id="Ellipse_63-21" data-name="Ellipse 63" cx="17" cy="17" r="17" transform="translate(922 385)" fill="#caa262" opacity="0.48"/>
          <g id="Group_4517-21" data-name="Group 4517" transform="translate(926.435 388.696)">
            <circle id="Ellipse_60-21" data-name="Ellipse 60" cx="13" cy="13" r="13" transform="translate(-0.435 0.304)" fill="url(#linear-gradient)"/>
            <g id="Ellipse_61-21" data-name="Ellipse 61" transform="translate(-0.435 0.304)" fill="none" stroke="#fff" stroke-width="1" stroke-dasharray="3">
              <circle cx="13" cy="13" r="13" stroke="none"/>
              <circle cx="13" cy="13" r="12.5" fill="none"/>
            </g>
            <text id="_28" data-name="28" transform="translate(18.565 16.304)" fill="#fff" font-size="10" font-family="Avenir-Black, Avenir" font-weight="800"><tspan x="-11.84" y="0">28</tspan></text>
          </g>
        </g>
        <g id="Group_4575" data-name="Group 4575" transform="translate(81 136)">
          <circle id="Ellipse_63-22" data-name="Ellipse 63" cx="17" cy="17" r="17" transform="translate(922 385)" fill="#caa262" opacity="0.48"/>
          <g id="Group_4517-22" data-name="Group 4517" transform="translate(926.435 388.696)">
            <circle id="Ellipse_60-22" data-name="Ellipse 60" cx="13" cy="13" r="13" transform="translate(-0.435 0.304)" fill="url(#linear-gradient)"/>
            <g id="Ellipse_61-22" data-name="Ellipse 61" transform="translate(-0.435 0.304)" fill="none" stroke="#fff" stroke-width="1" stroke-dasharray="3">
              <circle cx="13" cy="13" r="13" stroke="none"/>
              <circle cx="13" cy="13" r="12.5" fill="none"/>
            </g>
            <text id="_25" data-name="25" transform="translate(18.565 16.304)" fill="#fff" font-size="10" font-family="Avenir-Black, Avenir" font-weight="800"><tspan x="-11.84" y="0">25</tspan></text>
          </g>
        </g>
        <g id="Group_4576" data-name="Group 4576" transform="translate(17 166)">
          <circle id="Ellipse_63-23" data-name="Ellipse 63" cx="17" cy="17" r="17" transform="translate(922 385)" fill="#caa262" opacity="0.48"/>
          <g id="Group_4517-23" data-name="Group 4517" transform="translate(926.435 388.696)">
            <circle id="Ellipse_60-23" data-name="Ellipse 60" cx="13" cy="13" r="13" transform="translate(-0.435 0.304)" fill="url(#linear-gradient)"/>
            <g id="Ellipse_61-23" data-name="Ellipse 61" transform="translate(-0.435 0.304)" fill="none" stroke="#fff" stroke-width="1" stroke-dasharray="3">
              <circle cx="13" cy="13" r="13" stroke="none"/>
              <circle cx="13" cy="13" r="12.5" fill="none"/>
            </g>
            <text id="_25-2" data-name="25" transform="translate(18.565 16.304)" fill="#fff" font-size="10" font-family="Avenir-Black, Avenir" font-weight="800"><tspan x="-11.84" y="0">25</tspan></text>
          </g>
        </g>
        <g id="Group_4577" data-name="Group 4577" transform="translate(-105 166)">
          <circle id="Ellipse_63-24" data-name="Ellipse 63" cx="17" cy="17" r="17" transform="translate(922 385)" fill="#caa262" opacity="0.48"/>
          <g id="Group_4517-24" data-name="Group 4517" transform="translate(926.435 388.696)">
            <circle id="Ellipse_60-24" data-name="Ellipse 60" cx="13" cy="13" r="13" transform="translate(-0.435 0.304)" fill="url(#linear-gradient)"/>
            <g id="Ellipse_61-24" data-name="Ellipse 61" transform="translate(-0.435 0.304)" fill="none" stroke="#fff" stroke-width="1" stroke-dasharray="3">
              <circle cx="13" cy="13" r="13" stroke="none"/>
              <circle cx="13" cy="13" r="12.5" fill="none"/>
            </g>
            <text id="_39" data-name="39" transform="translate(18.565 16.304)" fill="#fff" font-size="10" font-family="Avenir-Black, Avenir" font-weight="800"><tspan x="-11.84" y="0">39</tspan></text>
          </g>
        </g>
        <g id="Group_4579" data-name="Group 4579" transform="translate(-227 166)">
          <circle id="Ellipse_63-25" data-name="Ellipse 63" cx="17" cy="17" r="17" transform="translate(922 385)" fill="#caa262" opacity="0.48"/>
          <g id="Group_4517-25" data-name="Group 4517" transform="translate(926.435 388.696)">
            <circle id="Ellipse_60-25" data-name="Ellipse 60" cx="13" cy="13" r="13" transform="translate(-0.435 0.304)" fill="url(#linear-gradient)"/>
            <g id="Ellipse_61-25" data-name="Ellipse 61" transform="translate(-0.435 0.304)" fill="none" stroke="#fff" stroke-width="1" stroke-dasharray="3">
              <circle cx="13" cy="13" r="13" stroke="none"/>
              <circle cx="13" cy="13" r="12.5" fill="none"/>
            </g>
            <text id="_40" data-name="40" transform="translate(18.565 16.304)" fill="#fff" font-size="10" font-family="Avenir-Black, Avenir" font-weight="800"><tspan x="-11.84" y="0">40</tspan></text>
          </g>
        </g>
        <g id="Group_4580" data-name="Group 4580" transform="translate(-267 105)">
          <circle id="Ellipse_63-26" data-name="Ellipse 63" cx="17" cy="17" r="17" transform="translate(922 385)" fill="#caa262" opacity="0.48"/>
          <g id="Group_4517-26" data-name="Group 4517" transform="translate(926.435 388.696)">
            <circle id="Ellipse_60-26" data-name="Ellipse 60" cx="13" cy="13" r="13" transform="translate(-0.435 0.304)" fill="url(#linear-gradient)"/>
            <g id="Ellipse_61-26" data-name="Ellipse 61" transform="translate(-0.435 0.304)" fill="none" stroke="#fff" stroke-width="1" stroke-dasharray="3">
              <circle cx="13" cy="13" r="13" stroke="none"/>
              <circle cx="13" cy="13" r="12.5" fill="none"/>
            </g>
            <text id="_21" data-name="21" transform="translate(18.565 16.304)" fill="#fff" font-size="10" font-family="Avenir-Black, Avenir" font-weight="800"><tspan x="-11.84" y="0">21</tspan></text>
          </g>
        </g>
        <g id="Group_4581" data-name="Group 4581" transform="translate(-319 137)">
          <circle id="Ellipse_63-27" data-name="Ellipse 63" cx="17" cy="17" r="17" transform="translate(922 385)" fill="#caa262" opacity="0.48"/>
          <g id="Group_4517-27" data-name="Group 4517" transform="translate(926.435 388.696)">
            <circle id="Ellipse_60-27" data-name="Ellipse 60" cx="13" cy="13" r="13" transform="translate(-0.435 0.304)" fill="url(#linear-gradient)"/>
            <g id="Ellipse_61-27" data-name="Ellipse 61" transform="translate(-0.435 0.304)" fill="none" stroke="#fff" stroke-width="1" stroke-dasharray="3">
              <circle cx="13" cy="13" r="13" stroke="none"/>
              <circle cx="13" cy="13" r="12.5" fill="none"/>
            </g>
            <text id="_21-2" data-name="21" transform="translate(18.565 16.304)" fill="#fff" font-size="10" font-family="Avenir-Black, Avenir" font-weight="800"><tspan x="-11.84" y="0">21</tspan></text>
          </g>
        </g>
        <g id="Group_4578" data-name="Group 4578" transform="translate(-47 115)">
          <circle id="Ellipse_63-28" data-name="Ellipse 63" cx="17" cy="17" r="17" transform="translate(922 385)" fill="#caa262" opacity="0.48"/>
          <g id="Group_4517-28" data-name="Group 4517" transform="translate(926.435 388.696)">
            <circle id="Ellipse_60-28" data-name="Ellipse 60" cx="13" cy="13" r="13" transform="translate(-0.435 0.304)" fill="url(#linear-gradient)"/>
            <g id="Ellipse_61-28" data-name="Ellipse 61" transform="translate(-0.435 0.304)" fill="none" stroke="#fff" stroke-width="1" stroke-dasharray="3">
              <circle cx="13" cy="13" r="13" stroke="none"/>
              <circle cx="13" cy="13" r="12.5" fill="none"/>
            </g>
            <text id="_43" data-name="43" transform="translate(18.565 16.304)" fill="#fff" font-size="10" font-family="Avenir-Black, Avenir" font-weight="800"><tspan x="-11.84" y="0">43</tspan></text>
          </g>
        </g>
      </g>
</svg>
